<svg xmlns="http://www.w3.org/2000/svg" xmlns:xlink="http://www.w3.org/1999/xlink" version="1.1" width="841.8898pt" height="595.2756pt" viewBox="0 0 841.8898 595.2756">
<defs>
<path id="font_0_1" d="M0 0Z"/>
<clipPath id="clip_1">
<path transform="matrix(1,0,0,-1,0,595.2756)" d="M-257698020-257697440H257698050V257698630H-257698020Z"/>
</clipPath>
<clipPath id="clip_2">
<path transform="matrix(1,0,0,-1,0,595.2756)" d="M72 136H147V512H72Z"/>
</clipPath>
<path id="font_3_5" d="M.47802735 .18017578C.47802735 .1694336 .47639976 .16097005 .47314454 .15478516 .4698893 .14860027 .46533204 .14550781 .45947267 .14550781H.3881836V.012252808C.3881836 .009638469 .38753257 .0074310305 .38623048 .005630493 .38492839 .0038401287 .38264976 .0022888184 .37939454 .0009765625 .3761393-.00032552085 .37190757-.0013020834 .36669923-.001953125 .36149089-.0026041668 .35481773-.0029296876 .3466797-.0029296876 .3388672-.0029296876 .33235679-.0026041668 .32714845-.001953125 .3219401-.0013020834 .3177897-.00032552085 .31469728 .0009765625 .31160484 .0022888184 .30948893 .0038401287 .3083496 .005630493 .3072103 .0074310305 .30664063 .009638469 .30664063 .012252808V.14550781H.045898439C.041992189 .14550781 .03873698 .1459961 .036132814 .14697266 .033528646 .14794922 .03116862 .14973958 .029052735 .15234375 .02693685 .15494792 .025472006 .1586914 .024658204 .16357422 .0238444 .16845703 .0234375 .17480469 .0234375 .18261719 .0234375 .18880208 .02360026 .19433594 .023925782 .19921875 .024251303 .20410156 .024902344 .20857747 .025878907 .21264649 .026855469 .2167155 .028157553 .22062175 .029785157 .22436524 .03141276 .22810872 .033365888 .23209636 .03564453 .23632813L.2631836 .61964419C.2648112 .62224838 .26717124 .6245219 .27026368 .62646487 .2733561 .62841799 .27734376 .6300456 .28222657 .63134768 .28710938 .6326497 .2931315 .6335449 .30029298 .6340332 .30745445 .6345215 .31591798 .6347656 .3256836 .6347656 .33642579 .6347656 .34578453 .6343587 .35375978 .6335449 .36173503 .63273116 .36816407 .63167318 .37304688 .6303711 .3779297 .62906906 .3816732 .62736007 .38427735 .62524417 .3868815 .6231384 .3881836 .6206207 .3881836 .61769106V.21484375H.45947267C.4650065 .21484375 .46948243 .21199544 .4729004 .20629883 .47631837 .20060222 .47802735 .19189453 .47802735 .18017578M.30664063 .56111147H.30566407L.100097659 .21484375H.30664063V.56111147Z"/>
<path id="font_3_1" d="M0 0Z"/>
<path id="font_3_6" d="M.46728517 .20436096C.46728517 .17666118 .46305339 .14985657 .45458985 .12394714 .4461263 .09803772 .43310548 .07522074 .41552735 .055496217 .39794923 .03578186 .37565104 .019973755 .3486328 .008071899 .3216146-.0038197835 .28971354-.009765625 .2529297-.009765625 .2265625-.009765625 .20328777-.0065104167 .18310547 0 .16292317 .0065205895 .14534505 .015808106 .1303711 .027862549 .11539713 .039916994 .10294596 .05473836 .09301758 .07232666 .083089198 .089914958 .07511393 .109949748 .0690918 .13243103 .063069667 .15491231 .05875651 .17950948 .056152345 .20622254 .053548177 .23293559 .052246095 .26160179 .052246095 .29222108 .052246095 .31925965 .053710939 .34662376 .056640626 .37431336 .059570314 .40200297 .06477865 .42871604 .072265628 .4544525 .0797526 .480189 .08992513 .5043742 .1027832 .52700808 .11564127 .5496521 .13175456 .5693614 .15112305 .58613589 .17049153 .60292056 .19368489 .6161957 .22070313 .6259613 .24772136 .6357371 .27913413 .640625 .3149414 .640625 .3269857 .640625 .33919273 .6398926 .3515625 .63842776 .36393229 .6369629 .37532554 .63500979 .3857422 .63256838 .39615885 .63012698 .4049479 .6274414 .41210938 .6245117 .41927085 .62158206 .42399089 .619222 .42626954 .61743167 .4285482 .6156413 .43025718 .6136882 .43139649 .61157229 .4325358 .60945639 .433431 .60717776 .43408204 .6047363 .43473307 .6022949 .43522135 .599528 .43554688 .59643557 .4358724 .5933431 .43603517 .58951827 .43603517 .58496096 .43603517 .57910159 .43595378 .57405599 .43579103 .5698242 .43562828 .56559249 .4349772 .5621745 .4338379 .5595703 .43269859 .5569661 .43123374 .555013 .42944337 .55371096 .42765299 .5524089 .42529298 .5517578 .42236329 .5517578 .41878257 .5517578 .41389976 .55289718 .40771485 .5551758 .40152995 .5574544 .39404298 .55997726 .3852539 .56274417 .37646485 .56551107 .36580406 .5680339 .35327149 .5703125 .34073893 .5725911 .32617188 .57373049 .3095703 .57373049 .27929688 .57373049 .25325523 .5675456 .23144531 .5551758 .20963542 .54280599 .19181316 .5262044 .17797852 .5053711 .16414388 .48453776 .15388997 .46036784 .1472168 .43286134 .14054363 .40535484 .13671875 .3766276 .13574219 .3466797 .14420574 .3515625 .15372722 .3564453 .16430664 .36132813 .17488607 .36621095 .18644206 .37060548 .19897461 .37451173 .21150716 .37841798 .22477214 .3815918 .23876953 .3840332 .25276695 .3864746 .26774089 .3876953 .2836914 .3876953 .3178711 .3876953 .3466797 .38305155 .3701172 .37376405 .3935547 .36447654 .41251628 .35160319 .42700196 .33514405 .44148765 .3186849 .4518229 .29929099 .4580078 .27696229 .46419273 .25463359 .46728517 .23043315 .46728517 .20436096M.38232423 .19654846C.38232423 .21545919 .38045249 .23266094 .37670899 .24815369 .37296549 .26364646 .36669923 .27677409 .35791017 .28753663 .3491211 .29829917 .33740235 .3066152 .3227539 .31248475 .30810548 .31835429 .29003907 .32128907 .2685547 .32128907 .2565104 .32128907 .24446614 .32022605 .23242188 .31809999 .22037761 .3159841 .20874024 .31304933 .19750977 .30929566 .1862793 .30555216 .17553711 .30115257 .1652832 .2960968 .1550293 .29104106 .14567058 .2855784 .13720703 .27970887 .13720703 .2376353 .13989258 .20241292 .14526367 .17404175 .15063477 .14567058 .15844727 .122924808 .16870117 .10580444 .17895508 .08868408 .19173177 .07645162 .20703125 .069107059 .22233074 .061772665 .24023438 .05810547 .2607422 .05810547 .28157554 .05810547 .29964195 .062016805 .3149414 .06983948 .33024089 .077672328 .3429362 .08819071 .35302735 .10139465 .3631185 .114608768 .37052409 .12945049 .37524415 .1459198 .3799642 .16238912 .38232423 .17926534 .38232423 .19654846Z"/>
<path id="font_3_7" d="M.4560547 .34085084C.4560547 .3134664 .4544271 .28575645 .45117188 .25772096 .44791667 .22968547 .4423828 .20270793 .4345703 .17678833 .4267578 .1508789 .41625978 .126592 .40307618 .10392761 .38989259 .0812734 .37329103 .061467489 .35327149 .044509889 .33325196 .02756246 .30948893 .014277141 .28198243 .0046539308 .25447593-.0049591066 .22249349-.009765625 .18603516-.009765625 .17203777-.009765625 .15844727-.008870442 .14526367-.007080078 .13208008-.0052897136 .12019857-.003092448 .10961914-.00048828127 .09903971 .0021158856 .09016927 .0048828127 .08300781 .0078125 .07584635 .0107421879 .07063802 .013671875 .06738281 .016601563 .0641276 .01953125 .061767579 .02351888 .060302736 .028564454 .05883789 .033610029 .05810547 .040364583 .05810547 .048828126 .05810547 .055989583 .05834961 .0616862 .05883789 .06591797 .059326173 .07014974 .060058595 .073404949 .061035158 .075683597 .06201172 .07796224 .06339518 .07950846 .06518555 .080322269 .066975917 .08113607 .06917318 .08154297 .071777347 .08154297 .07535807 .08154297 .08040365 .080322269 .08691406 .07788086 .09342448 .07543945 .10164388 .072753909 .111572269 .06982422 .12150065 .06689453 .13313802 .064208988 .14648438 .061767579 .15983074 .059326173 .17480469 .05810547 .19140625 .05810547 .22298177 .05810547 .2500814 .06422424 .27270509 .07646179 .29532878 .08869934 .3138021 .10509745 .328125 .12565613 .3424479 .14622498 .3531901 .17005413 .36035157 .19714356 .36751304 .22423299 .37141929 .25275675 .3720703 .28271485 .35481773 .2726237 .33414714 .26367188 .3100586 .25585938 .28597007 .24804688 .25830079 .24414063 .22705078 .24414063 .19189453 .24414063 .16235352 .24894715 .13842774 .25856019 .11450195 .26817323 .09529623 .28129069 .08081055 .2979126 .06632487 .31453453 .055908204 .33425395 .049560548 .35707093 .04321289 .3798879 .040039064 .40482078 .040039064 .4318695 .040039064 .459905 .044108076 .4865519 .052246095 .5118103 .060384115 .53706869 .07307943 .5593109 .09033203 .578537 .10758463 .59776309 .1295573 .6130778 .15625 .6244812 .1829427 .6358948 .21484375 .64160159 .25195313 .64160159 .2783203 .64160159 .30167643 .6382599 .32202149 .63157656 .34236656 .6248932 .36002604 .6152751 .375 .60272219 .38997398 .59016928 .40266929 .57500717 .41308595 .5572357 .4235026 .5394745 .43188478 .5193431 .43823243 .49684144 .44458009 .47434999 .44913737 .4499817 .4519043 .42373658 .45467124 .39750163 .4560547 .36987306 .4560547 .34085084M.37060548 .35017396C.37060548 .39191184 .36783854 .42704774 .3623047 .45558167 .35677085 .48412577 .3486328 .50720217 .33789063 .5248108 .32714845 .54241946 .31396485 .5551351 .29833985 .56295779 .28271485 .5707906 .26464845 .57470706 .24414063 .57470706 .22298177 .57470706 .20491536 .570872 .1899414 .5632019 .17496746 .555542 .16267903 .5452728 .15307617 .5323944 .14347331 .519516 .13639324 .5049235 .13183594 .48861695 .12727864 .4723104 .125 .45551048 .125 .43821717 .125 .41898094 .1270345 .40137229 .13110352 .38539125 .13517253 .3694102 .14176433 .35587565 .1508789 .3447876 .15999349 .33369956 .171875 .32513938 .18652344 .31910707 .20117188 .31307475 .21923828 .3100586 .24072266 .3100586 .26513673 .3100586 .28873698 .3137258 .31152345 .32106019 .3343099 .32840476 .3540039 .33810935 .37060548 .35017396Z"/>
<path id="font_3_3" d="M.45263673 .033203126C.45263673 .027018229 .45214845 .021809897 .45117188 .017578125 .4501953 .0133463549 .44889323 .009928386 .44726563 .0073242189 .44563804 .0047200524 .44376628 .0028483074 .4416504 .0017089844 .43953453 .00056966146 .43733726 0 .4350586 0H.10498047C.10270182 0 .10058594 .00056966146 .09863281 .0017089844 .09667969 .0028483074 .094807948 .0047200524 .09301758 .0073242189 .09122721 .009928386 .08984375 .0133463549 .08886719 .017578125 .087890628 .021809897 .087402347 .027018229 .087402347 .033203126 .087402347 .0390625 .087890628 .044108076 .08886719 .048339845 .08984375 .052571615 .09106445 .056070966 .0925293 .05883789 .09399414 .061604818 .09578451 .0637207 .09790039 .06518555 .10001627 .06665039 .102376308 .06738281 .10498047 .06738281H.2368164V.54833987L.114746097 .47509767C.108561199 .47184245 .10359701 .4698893 .099853519 .46923829 .09611002 .46858726 .09309896 .46931968 .09082031 .47143556 .088541667 .47355143 .086995448 .47705589 .08618164 .48194886 .085367839 .48685203 .08496094 .49305726 .08496094 .5005646 .08496094 .5061188 .08520508 .51085409 .08569336 .5147705 .08618164 .51868698 .08691406 .52195236 .087890628 .52456668 .08886719 .52718099 .09025065 .5294647 .092041019 .53141787 .09383138 .53338119 .096191409 .53533938 .099121097 .5372925L.2446289 .6308441C.24593099 .6318207 .2475586 .63263449 .24951172 .6332855 .25146485 .6339467 .25390626 .63460287 .25683595 .6352539 .25976563 .63590499 .2631836 .6363118 .26708985 .6364746 .2709961 .6366374 .2758789 .63671877 .28173829 .63671877 .28955079 .63671877 .2960612 .63639327 .30126954 .6357422 .30647788 .6350911 .31054688 .634196 .31347657 .63305667 .31640626 .6319173 .31835938 .6304474 .31933595 .62864688 .3203125 .6268565 .32080079 .62498477 .32080079 .6230316V.06738281H.4350586C.43766276 .06738281 .44010417 .06665039 .4423828 .06518555 .44466148 .0637207 .4465332 .061604818 .44799806 .05883789 .4494629 .056070966 .4506022 .052571615 .45141603 .048339845 .45222984 .044108076 .45263673 .0390625 .45263673 .033203126Z"/>
<path id="font_3_4" d="M.44628907 .18017578C.44628907 .15120442 .4412435 .12508138 .43115235 .10180664 .4210612 .0785319 .40657554 .05859375 .3876953 .041992189 .3688151 .025390625 .34554038 .012613933 .3178711 .0036621094 .2902018-.0052897136 .2589518-.009765625 .2241211-.009765625 .20296224-.009765625 .18318685-.008046468 .16479492-.0046081545 .146403-.0011800131 .13004558 .002904256 .115722659 .0076446535 .10139974 .012385051 .08951823 .017288208 .080078128 .022354126 .07063802 .027420044 .064697269 .031097413 .06225586 .03338623 .059814454 .03567505 .057942708 .037958784 .056640626 .040237428 .055338544 .042526246 .05419922 .045303346 .053222658 .048568727 .052246095 .05184428 .051513673 .055852254 .05102539 .06059265 .05053711 .065333049 .05029297 .071136478 .05029297 .07800293 .05029297 .08976237 .051432294 .09793091 .053710939 .102508548 .055989583 .10708618 .059244794 .109375 .06347656 .109375 .06640625 .109375 .07218424 .1067454 .08081055 .101486209 .08943685 .09622701 .100504558 .090555828 .11401367 .084472659 .12752278 .07838949 .14331055 .0727183 .16137696 .06745911 .17944336 .06219991 .19954427 .059570314 .22167969 .059570314 .24316406 .059570314 .26204429 .06233724 .2783203 .067871097 .29459635 .073404949 .30826823 .081217449 .31933595 .091308597 .33040367 .10139974 .33870445 .11336263 .34423829 .12719727 .34977214 .1410319 .35253907 .15608724 .35253907 .17236328 .35253907 .19026692 .3490397 .2063802 .34204103 .22070313 .33504234 .23502605 .32478843 .24739583 .3112793 .2578125 .29777018 .26822917 .2811686 .27620445 .2614746 .28173829 .2417806 .28727214 .21940105 .29003907 .19433594 .29003907H.13427735C.13167317 .29003907 .12915039 .29060874 .12670899 .29174806 .12426758 .29288737 .122151698 .29475913 .12036133 .29736329 .11857096 .29996745 .11710612 .3033854 .1159668 .3076172 .11482748 .31184898 .11425781 .3173828 .11425781 .32421876 .11425781 .33040367 .114746097 .3355306 .115722659 .3395996 .11669922 .3436686 .11808268 .34692384 .11987305 .34936524 .121663417 .35180665 .123697917 .35359703 .12597656 .35473634 .1282552 .35587565 .13085938 .3564453 .13378906 .3564453H.18896485C.21044922 .3564453 .22973633 .3592224 .24682617 .3647766 .26391603 .37034098 .2784017 .37835185 .2902832 .3888092 .3021647 .39927674 .3112793 .41178385 .31762696 .42633058 .3239746 .44088746 .32714845 .45715843 .32714845 .47514344 .32714845 .4882253 .32503257 .5007324 .32080079 .5126648 .316569 .52460739 .31022135 .5349884 .3017578 .543808 .29329429 .55263778 .2824707 .5595856 .2692871 .5646515 .25610353 .5697276 .24088542 .5722656 .22363281 .5722656 .20475261 .5722656 .18741863 .5694173 .17163086 .5637207 .1558431 .5580241 .14176433 .5519206 .12939453 .54541018 .11702474 .5388997 .106770839 .5327962 .09863281 .5270996 .09049479 .521403 .08479818 .5185547 .08154297 .5185547 .07926432 .5185547 .07722982 .5189616 .07543945 .5197754 .073649089 .5205892 .07218424 .5222168 .07104492 .5246582 .0699056 .5270996 .0690918 .5305176 .068603519 .5349121 .068115238 .53930667 .067871097 .54508468 .067871097 .5522461 .067871097 .5571289 .06803385 .5614421 .068359378 .56518557 .0686849 .568929 .06933594 .57218429 .0703125 .5749512 .07128906 .5777181 .07242838 .5802409 .07373047 .58251956 .075032558 .58479818 .07722982 .5874837 .080322269 .5905762 .08341471 .59366866 .08968099 .59814456 .099121097 .6040039 .108561199 .6098633 .12019857 .6156413 .1340332 .6213379 .14786785 .6270345 .16381836 .63183596 .18188477 .6357422 .19995117 .63964846 .21940105 .64160159 .24023438 .64160159 .26953126 .64160159 .2952474 .63784286 .3173828 .6303253 .33951823 .622818 .35799156 .61220809 .37280274 .5984955 .38761393 .5847829 .39868165 .56837466 .40600587 .54927065 .41333009 .5301666 .4169922 .509023 .4169922 .48583985 .4169922 .46592204 .41438804 .4473877 .4091797 .43023683 .40397135 .4130961 .39632163 .3979136 .38623048 .38468934 .3761393 .37146507 .36376954 .36019898 .3491211 .3508911 .33447267 .34158326 .31754557 .33513389 .29833985 .33154298V.3305664C.32014976 .32828776 .3400879 .3228353 .3581543 .31420899 .3762207 .30558268 .3917643 .29475913 .40478517 .28173829 .417806 .26871745 .42797853 .25349937 .43530274 .23608399 .44262696 .21866863 .44628907 .20003255 .44628907 .18017578Z"/>
<clipPath id="clip_4">
<path transform="matrix(1,0,0,-1,0,595.2756)" d="M72 136H147V512H72Z"/>
</clipPath>
<clipPath id="clip_5">
<path transform="matrix(1,0,0,-1,0,595.2756)" d="M-257698020-257697440H257698050V257698630H-257698020Z"/>
</clipPath>
<clipPath id="clip_6">
<path transform="matrix(1,0,0,-1,0,595.2756)" d="M-257698020-257697440H257698050V257698630H-257698020Z"/>
</clipPath>
<clipPath id="clip_7">
<path transform="matrix(1,0,0,-1,0,595.2756)" d="M-257698020-257697440H257698050V257698630H-257698020Z"/>
</clipPath>
<clipPath id="clip_8">
<path transform="matrix(1,0,0,-1,0,595.2756)" d="M266 278H373V368H266Z"/>
</clipPath>
<path id="font_9_4" d="M.5053711 .0126953129C.5053711 .0100911459 .5048828 .0078125 .50390627 .005859375 .5029297 .00390625 .5008138 .0022786458 .4975586 .0009765625 .49430339-.00032552085 .4897461-.0013020834 .48388673-.001953125 .47802735-.0026041668 .47021485-.0029296876 .46044923-.0029296876 .4519857-.0029296876 .44506837-.0026041668 .43969728-.001953125 .43432618-.0013020834 .43001304-.00024414063 .4267578 .0012207031 .4235026 .0026855469 .42097984 .0047200524 .41918946 .0073242189 .41739909 .009928386 .41585288 .013183594 .41455079 .017089844L.3564453 .16601563C.34960938 .1829427 .3425293 .19848633 .33520509 .21264649 .32788087 .22680664 .3191732 .23901367 .30908204 .24926758 .29899089 .25952149 .28710938 .26749674 .2734375 .27319337 .25976563 .27888999 .24332683 .28173829 .2241211 .28173829H.16796875V.0126953129C.16796875 .0100911459 .16723633 .0078125 .16577149 .005859375 .16430664 .00390625 .162028 .0023600262 .15893555 .0012207031 .1558431 .00008138021 .15161133-.0008951823 .14624024-.0017089844 .14086914-.0025227864 .13411458-.0029296876 .12597656-.0029296876 .11783854-.0029296876 .111083988-.0025227864 .10571289-.0017089844 .1003418-.0008951823 .09602865 .00008138021 .09277344 .0012207031 .08951823 .0023600262 .087239589 .00390625 .0859375 .005859375 .084635417 .0078125 .083984378 .0100911459 .083984378 .0126953129V.59765627C.083984378 .61035159 .08732096 .619222 .09399414 .6242676 .10066732 .6293132 .1077474 .63183596 .115234378 .63183596H.24951172C.26546226 .63183596 .2787272 .631429 .28930665 .63061526 .29988609 .62980148 .30940757 .62890627 .3178711 .6279297 .34228517 .62369796 .36385093 .6170247 .38256837 .60791018 .4012858 .5987956 .4169922 .58723959 .4296875 .5732422 .4423828 .5592448 .4519043 .5432129 .45825196 .5251465 .4645996 .5070801 .46777345 .48714195 .46777345 .46533204 .46777345 .4441732 .46492515 .42521159 .45922853 .40844728 .4535319 .39168296 .4453125 .37687174 .4345703 .36401368 .42382813 .3511556 .41097007 .3400065 .3959961 .3305664 .38102214 .3211263 .3642578 .31315104 .34570313 .30664063 .35611979 .30208335 .3655599 .29630534 .37402345 .28930665 .38248698 .28230796 .39038087 .27392579 .39770509 .26416017 .4050293 .25439454 .41194663 .24316406 .41845704 .23046875 .42496745 .21777344 .43147788 .20345052 .43798829 .1875L.4946289 .048339845C.4991862 .036621095 .5021159 .028401694 .50341799 .02368164 .50472006 .018961588 .5053711 .0152994799 .5053711 .0126953129M.37890626 .45654298C.37890626 .48128257 .3733724 .50219729 .3623047 .5192871 .35123698 .53637698 .33268229 .54866537 .30664063 .55615237 .2985026 .55843099 .28930665 .5600586 .27905274 .56103518 .26879884 .5620117 .2553711 .5625 .23876953 .5625H.16796875V.34960938H.25C.2721354 .34960938 .29125978 .35229493 .30737306 .35766603 .32348634 .3630371 .33691407 .37052409 .34765626 .38012696 .35839845 .38972984 .36629234 .40104167 .3713379 .4140625 .37638346 .42708335 .37890626 .4412435 .37890626 .45654298Z"/>
<path id="font_9_2" d="M.5571289 .029785157C.5597331 .022623698 .5611165 .016845704 .5612793 .012451172 .5614421 .008056641 .5602214 .0047200524 .5576172 .0024414063 .555013 .00016276042 .5506999-.0013020834 .54467776-.001953125 .5386556-.0026041668 .53059896-.0029296876 .5205078-.0029296876 .5104167-.0029296876 .50236007-.0026855469 .4963379-.0021972657 .49031578-.0017089844 .48575846-.0008951823 .48266603 .00024414063 .47957359 .0013834635 .47729493 .0029296876 .47583009 .0048828127 .47436524 .0068359377 .47298179 .009277344 .4716797 .012207031L.41748048 .16601563H.15478516L.103027347 .014160156C.10205078 .011230469 .100748699 .008707683 .099121097 .006591797 .09749349 .0044759118 .09513346 .0026855469 .092041019 .0012207031 .08894857-.00024414063 .08455404-.0013020834 .07885742-.001953125 .073160808-.0026041668 .06575521-.0029296876 .056640626-.0029296876 .04720052-.0029296876 .039469404-.0025227864 .033447267-.0017089844 .02742513-.0008951823 .02319336 .0006510417 .020751954 .0029296876 .018310547 .0052083337 .017171225 .008544922 .017333985 .012939453 .017496745 .017333985 .018880209 .023111979 .021484375 .030273438L.23339844 .6171875C.23470052 .62076827 .2364095 .62369796 .23852539 .62597659 .24064128 .6282552 .24373372 .6300456 .24780274 .63134768 .25187174 .6326497 .25708009 .6335449 .26342774 .6340332 .2697754 .6345215 .27783204 .6347656 .28759767 .6347656 .2980143 .6347656 .30664063 .6345215 .31347657 .6340332 .3203125 .6335449 .32584635 .6326497 .33007813 .63134768 .3343099 .6300456 .3375651 .6281738 .33984376 .6257324 .3421224 .623291 .34391276 .62027999 .34521485 .6166992L.5571289 .029785157M.28515626 .54785159H.28466798L.17578125 .23291016H.3955078L.28515626 .54785159Z"/>
<path id="font_9_3" d="M.7709961 .0126953129C.7709961 .0100911459 .77034506 .0078125 .76904299 .005859375 .7677409 .00390625 .7654622 .0023600262 .76220706 .0012207031 .75895187 .00008138021 .75480148-.0008951823 .74975588-.0017089844 .74471029-.0025227864 .73811849-.0029296876 .72998049-.0029296876 .72249349-.0029296876 .71606448-.0025227864 .71069338-.0017089844 .70532229-.0008951823 .7010905 .00008138021 .69799807 .0012207031 .6949056 .0023600262 .6927083 .00390625 .69140627 .005859375 .6901042 .0078125 .6894531 .0100911459 .6894531 .0126953129V.5629883H.68847659L.4633789 .010253906C.46240235 .007975261 .4610189 .0060221354 .45922853 .0043945314 .45743815 .002766927 .45483399 .0013834635 .45141603 .00024414063 .44799806-.0008951823 .44392906-.0017089844 .43920899-.0021972657 .43448893-.0026855469 .4288737-.0029296876 .42236329-.0029296876 .41552735-.0029296876 .40966798-.0026041668 .40478517-.001953125 .39990235-.0013020834 .39583335-.00040690104 .39257813 .0007324219 .3893229 .0018717448 .38680015 .0032552083 .38500978 .0048828127 .3832194 .0065104167 .3819987 .008300781 .38134767 .010253906L.16601563 .5629883H.16552735V.0126953129C.16552735 .0100911459 .1648763 .0078125 .16357422 .005859375 .16227214 .00390625 .15999349 .0023600262 .15673828 .0012207031 .15348308 .00008138021 .1492513-.0008951823 .14404297-.0017089844 .13883464-.0025227864 .13216146-.0029296876 .12402344-.0029296876 .11621094-.0029296876 .10970052-.0025227864 .10449219-.0017089844 .09928385-.0008951823 .09513346 .00008138021 .092041019 .0012207031 .08894857 .0023600262 .08683268 .00390625 .08569336 .005859375 .08455404 .0078125 .083984378 .0100911459 .083984378 .0126953129V.59375C.083984378 .6074219 .0875651 .6171875 .09472656 .6230469 .10188802 .62890627 .10986328 .63183596 .118652347 .63183596H.1694336C.17985027 .63183596 .18896485 .6308594 .19677735 .62890627 .20458985 .6269531 .21142578 .62386068 .21728516 .6196289 .22314453 .61539718 .22802735 .61002609 .2319336 .6035156 .23583985 .5970052 .23925781 .58935549 .2421875 .5805664L.42529298 .123046878H.42773438L.61816409 .57910159C.6217448 .5888672 .62565109 .59716799 .6298828 .6040039 .63411459 .61083987 .63875326 .6162923 .6437988 .6203613 .6488444 .62443038 .65445968 .62736007 .66064456 .6291504 .6668294 .63094076 .6739909 .63183596 .6821289 .63183596H.73535159C.7402344 .63183596 .74487307 .6311035 .7492676 .6296387 .7536621 .6281738 .7574056 .6258952 .76049807 .62280276 .7635905 .61971029 .7661133 .615804 .7680664 .611084 .77001956 .60636398 .7709961 .60058596 .7709961 .59375V.0126953129Z"/>
<clipPath id="clip_10">
<path transform="matrix(1,0,0,-1,0,595.2756)" d="M266 278H373V368H266Z"/>
</clipPath>
<path id="font_9_1" d="M0 0Z"/>
<clipPath id="clip_11">
<path transform="matrix(1,0,0,-1,0,595.2756)" d="M266 223H373V260H266Z"/>
</clipPath>
<path id="font_12_7" d="M.42333985 .17703247C.42333985 .14736939 .41788737 .12096151 .40698243 .09780884 .39607749 .07466634 .38094078 .055023195 .36157228 .038879396 .34220378 .022745768 .31941734 .010604858 .2932129 .002456665 .26700846-.0056915285 .23876953-.009765625 .2084961-.009765625 .18733724-.009765625 .16772461-.007975261 .1496582-.0043945314 .1315918-.00081380209 .115478519 .0035807293 .10131836 .0087890629 .0871582 .0139973959 .075276698 .01936849 .06567383 .024902344 .056070966 .030436198 .049397787 .03515625 .045654298 .0390625 .04191081 .04296875 .03914388 .04793294 .037353517 .053955079 .035563154 .059977216 .03466797 .06803385 .03466797 .078125 .03466797 .08528646 .03499349 .09122721 .03564453 .095947269 .036295576 .10066732 .037272138 .10449219 .03857422 .107421878 .0398763 .11035156 .041503908 .11238607 .04345703 .11352539 .045410158 .11466471 .0476888 .115234378 .05029297 .115234378 .05485026 .115234378 .061279298 .112467449 .06958008 .106933597 .07788086 .10139974 .088541667 .0953776 .1015625 .08886719 .114583339 .08235677 .13028972 .07625326 .14868164 .07055664 .16707357 .06486002 .1883138 .06201172 .21240235 .06201172 .23063152 .06201172 .24731446 .064458217 .26245118 .0693512 .2775879 .07424418 .29060874 .08117676 .30151368 .090148929 .3124186 .099131267 .32080079 .11014811 .32666017 .12319946 .33251954 .13625081 .33544923 .15109761 .33544923 .16773987 .33544923 .18567403 .33138023 .20099385 .3232422 .21369934 .31510417 .226415 .30436198 .23757935 .29101563 .24719239 .27766929 .25681559 .26245118 .2656199 .24536133 .27360536 .22827149 .28160096 .21077474 .28975425 .1928711 .2980652 .17496746 .30637614 .15755208 .31558229 .140625 .3256836 .123697917 .33579508 .108561199 .34769694 .095214847 .36138917 .08186849 .3750814 .07104492 .3911387 .06274414 .40956117 .05444336 .4279836 .05029297 .45007325 .05029297 .47583009 .05029297 .5022278 .055094404 .52577719 .064697269 .5464783 .07430013 .5671895 .087646488 .584554 .10473633 .5985718 .12182617 .61258956 .14217122 .62326559 .16577149 .6306 .18937175 .6379344 .21484375 .64160159 .2421875 .64160159 .2561849 .64160159 .27026368 .6403656 .28442384 .6378937 .29858399 .63543197 .31193034 .6321411 .3244629 .62802127 .33699546 .62391158 .34814454 .6193034 .35791017 .6141968 .36767579 .60910037 .37410484 .60498556 .37719728 .6018524 .3802897 .59872946 .38232423 .59627279 .38330079 .5944824 .38427735 .5926921 .38509117 .5904134 .3857422 .5876465 .38639323 .5848796 .3868815 .58154299 .38720704 .5776367 .38753257 .57373049 .3876953 .5686849 .3876953 .5625 .3876953 .5566406 .38745118 .5514323 .3869629 .546875 .3864746 .5423177 .3857422 .53849288 .38476563 .5354004 .38378907 .5323079 .3824056 .5300293 .38061524 .52856448 .37882487 .5270996 .37679038 .5263672 .37451173 .5263672 .370931 .5263672 .36531578 .52867129 .35766603 .5332794 .35001628 .5378876 .34065757 .5430705 .32958985 .5488281 .31852214 .55458578 .30541993 .55985006 .2902832 .564621 .27514649 .5693919 .25813804 .57177737 .23925781 .57177737 .22167969 .57177737 .2063802 .56940719 .19335938 .56466677 .18033855 .5599365 .16959636 .55365499 .16113281 .54582217 .15266927 .5379893 .14632161 .5286865 .14208985 .5179138 .13785808 .5071411 .13574219 .49571739 .13574219 .48364259 .13574219 .46603395 .1398112 .4508718 .14794922 .43815614 .15608724 .42545066 .16691081 .41420494 .18041992 .40441896 .19392903 .39464317 .20930989 .38567607 .2265625 .3775177 .24381511 .3693695 .26139323 .36113993 .27929688 .35282899 .29720054 .34451805 .31477867 .33538819 .33203126 .32543946 .34928385 .3155009 .3646647 .30376689 .37817384 .29023744 .39168296 .27670799 .4025879 .26073203 .41088868 .24230957 .41918946 .2238973 .42333985 .20213826 .42333985 .17703247Z"/>
<path id="font_12_11" d="M.15527344 .012207031C.15527344 .009602864 .15462239 .007405599 .15332031 .0056152346 .15201824 .0038248699 .14990235 .0022786458 .14697266 .0009765625 .14404297-.00032552085 .13997396-.0013020834 .13476563-.001953125 .1295573-.0026041668 .12288412-.0029296876 .114746097-.0029296876 .106933597-.0029296876 .10042318-.0026041668 .095214847-.001953125 .09000651-.0013020834 .08585612-.00032552085 .08276367 .0009765625 .07967123 .0022786458 .077555339 .0038248699 .076416019 .0056152346 .075276698 .007405599 .07470703 .009602864 .07470703 .012207031V.45166017C.07470703 .4539388 .075276698 .4560547 .076416019 .4580078 .077555339 .45996095 .07967123 .46158854 .08276367 .46289063 .08585612 .46419273 .09000651 .46516929 .095214847 .4658203 .10042318 .46647135 .106933597 .46679688 .114746097 .46679688 .12288412 .46679688 .1295573 .46647135 .13476563 .4658203 .13997396 .46516929 .14404297 .46419273 .14697266 .46289063 .14990235 .46158854 .15201824 .45996095 .15332031 .4580078 .15462239 .4560547 .15527344 .4539388 .15527344 .45166017V.012207031M.16455078 .60058596C.16455078 .58170577 .16097005 .56884768 .1538086 .5620117 .14664714 .5551758 .13346355 .5517578 .11425781 .5517578 .0953776 .5517578 .08243815 .5550944 .07543945 .5617676 .06844076 .56844076 .064941409 .5810547 .064941409 .5996094 .064941409 .61848959 .06852213 .63134768 .075683597 .6381836 .082845058 .64501956 .09602865 .6484375 .115234378 .6484375 .13411458 .6484375 .14705403 .6451009 .15405274 .63842776 .16105144 .6317546 .16455078 .6191406 .16455078 .60058596Z"/>
<path id="font_12_19" d="M.35498048 .034179689C.35498048 .027994791 .3544922 .022705079 .35351563 .018310547 .35253907 .013916016 .35139976 .010335286 .35009767 .0075683596 .34879557 .004801432 .34700523 .0028483074 .34472657 .0017089844 .3424479 .00056966146 .3400065 0 .33740235 0H.06689453C.060058595 0 .05444336 .0022786458 .050048829 .0068359377 .045654298 .0113932299 .04345703 .019042969 .04345703 .029785157V.04638672C.04345703 .05094401 .04378255 .05501302 .044433595 .05859375 .045084638 .06217448 .0460612 .06575521 .04736328 .06933594 .048665365 .072916667 .05045573 .07674154 .052734376 .08081055 .05501302 .084879558 .05777995 .08951823 .061035158 .09472656L.2548828 .39697267H.06689453C.0616862 .39697267 .05753581 .3996582 .05444336 .4050293 .05135091 .4104004 .049804689 .41910807 .049804689 .43115235 .049804689 .43701173 .050130208 .44213868 .05078125 .4465332 .051432294 .45092774 .052490236 .45450846 .053955079 .4572754 .055419923 .46004234 .057210287 .46199546 .059326173 .46313478 .06144206 .46427409 .063964847 .46484376 .06689453 .46484376H.31884767C.32242839 .46484376 .3256022 .46435548 .32836915 .4633789 .33113609 .46240235 .3334961 .46077476 .33544923 .4584961 .33740235 .45621745 .33894859 .45328776 .3400879 .44970704 .3412272 .4461263 .34179688 .441569 .34179688 .43603517V.42041017C.34179688 .41585288 .34147135 .4116211 .3408203 .40771485 .34016929 .4038086 .33919273 .39998374 .33789063 .39624024 .33658854 .39249674 .3347982 .38850913 .33251954 .38427735 .33024089 .38004557 .32747398 .37532554 .32421876 .3701172L.13134766 .067871097H.33740235C.3400065 .067871097 .34236656 .06730143 .34448243 .06616211 .3465983 .06502279 .34838868 .06315104 .34985353 .060546876 .35131837 .057942708 .35253907 .05444336 .35351563 .050048829 .3544922 .045654298 .35498048 .040364583 .35498048 .034179689Z"/>
<path id="font_12_9" d="M.44970704 .25097657C.44970704 .23828125 .4465332 .22924805 .44018556 .22387696 .4338379 .21850586 .42659507 .21582031 .41845704 .21582031H.1303711C.1303711 .19133504 .1328125 .16929627 .13769531 .14970398 .14257813 .1301117 .15071614 .11329651 .16210938 .09925842 .17350261 .08522034 .1883138 .07444254 .20654297 .06692505 .22477214 .059417726 .24707031 .055664064 .2734375 .055664064 .29427085 .055664064 .31282554 .057373048 .32910157 .060791017 .3453776 .064208988 .3594564 .06803385 .3713379 .072265628 .3832194 .0764974 .39298503 .080322269 .40063478 .083740238 .40828453 .0871582 .4140625 .08886719 .41796876 .08886719 .4202474 .08886719 .4222819 .08829752 .42407228 .0871582 .42586265 .08601888 .4272461 .0843099 .42822267 .08203125 .42919923 .0797526 .42993165 .07657877 .43041993 .072509769 .4309082 .06844076 .43115235 .06347656 .43115235 .057617189 .43115235 .053385419 .4309896 .04972331 .43066407 .04663086 .43033854 .04353841 .42993165 .040771486 .42944337 .038330079 .42895509 .035888673 .42814128 .033691408 .42700196 .03173828 .42586265 .029785157 .4243978 .027913413 .42260743 .026123047 .42081706 .024332682 .41552735 .021402995 .40673829 .017333985 .39794923 .013264974 .386556 .009277344 .3725586 .0053710939 .3585612 .0014648438 .34236656-.0020345052 .3239746-.005126953 .30558268-.008219401 .28597007-.009765625 .26513673-.009765625 .2290039-.009765625 .197347-.004714966 .17016602 .0053863527 .14298503 .015487671 .12011719 .030476889 .1015625 .050354005 .08300781 .07023112 .069010417 .0951589 .059570314 .12513733 .050130208 .15511577 .045410158 .1899821 .045410158 .22973633 .045410158 .26753745 .05029297 .30150859 .060058595 .33164979 .06982422 .36179099 .08390299 .38736979 .10229492 .40838624 .12068685 .42940269 .14290364 .44553123 .16894531 .45677186 .19498699 .46801249 .2241211 .4736328 .25634767 .4736328 .29085288 .4736328 .3202311 .46809898 .34448243 .45703126 .36873374 .44596354 .38867188 .43107096 .40429688 .41235353 .41992188 .39363609 .43139649 .37166343 .4387207 .34643556 .44604493 .32120768 .44970704 .29427085 .44970704 .265625V.25097657M.36865235 .27490235C.3696289 .31722007 .36027018 .3504232 .34057618 .37451173 .32088218 .39860026 .29166667 .41064454 .2529297 .41064454 .23307292 .41064454 .21565755 .40690104 .2006836 .39941407 .18570964 .3919271 .17317708 .3819987 .16308594 .3696289 .1529948 .35725913 .1451823 .34285484 .13964844 .32641603 .13411458 .3099772 .13102214 .292806 .1303711 .27490235H.36865235Z"/>
<path id="font_12_1" d="M0 0Z"/>
<path id="font_12_21" d="M.45166017 .3774414C.45166017 .36442057 .44978843 .35538737 .44604493 .3503418 .44230143 .34529624 .43798829 .34277345 .43310548 .34277345H.063964847C.05908203 .34277345 .05485026 .34529624 .05126953 .3503418 .0476888 .35538737 .045898439 .36442057 .045898439 .3774414 .045898439 .38916017 .047526044 .39778648 .05078125 .4033203 .054036458 .40885417 .05843099 .4116211 .063964847 .4116211H.43310548C.43896485 .4116211 .44352214 .40885417 .44677735 .4033203 .45003257 .39778648 .45166017 .38916017 .45166017 .3774414M.45166017 .18701172C.45166017 .17399089 .44978843 .16503906 .44604493 .16015625 .44230143 .15527344 .43798829 .15283203 .43310548 .15283203H.063964847C.05908203 .15283203 .05485026 .15527344 .05126953 .16015625 .0476888 .16503906 .045898439 .17399089 .045898439 .18701172 .045898439 .19905599 .047526044 .20784505 .05078125 .2133789 .054036458 .21891277 .05843099 .22167969 .063964847 .22167969H.43310548C.43896485 .22167969 .44352214 .21891277 .44677735 .2133789 .45003257 .20784505 .45166017 .19905599 .45166017 .18701172Z"/>
<path id="font_12_20" d="M.45117188 .036132814C.45117188 .030273438 .45076499 .025065104 .44995118 .020507813 .44913737 .015950522 .44799806 .012125651 .4465332 .009033203 .44506837 .0059407555 .44311524 .0036621094 .44067384 .0021972657 .43823243 .0007324219 .43554688 0 .4326172 0H.083496097C.078938808 0 .07495117 .00056966146 .0715332 .0017089844 .068115238 .0028483074 .06518555 .0047200524 .06274414 .0073242189 .060302736 .009928386 .05851237 .013671875 .057373048 .018554688 .056233724 .0234375 .055664064 .029459635 .055664064 .036621095 .055664064 .04313151 .055908204 .048828126 .056396486 .053710939 .056884767 .05859375 .057942708 .0629069 .059570314 .06665039 .061197919 .07039388 .06323242 .07413737 .06567383 .07788086 .068115238 .08162435 .07128906 .08561198 .07519531 .08984375L.1977539 .21989441C.22607422 .24986267 .2487793 .2767385 .26586915 .30052186 .28295899 .3243052 .29614259 .34596763 .30541993 .36550904 .31469728 .38506065 .32080079 .40281678 .32373048 .41877748 .32666017 .43473817 .328125 .4497223 .328125 .46372987 .328125 .4777476 .32584635 .49102784 .32128907 .50357058 .31673179 .5161235 .31013999 .52712509 .30151368 .5365753 .29288737 .54603579 .2820638 .5535329 .26904298 .5590668 .25602214 .5646108 .24104817 .5673828 .2241211 .5673828 .20426433 .5673828 .18644206 .5646159 .1706543 .55908206 .15486653 .55354818 .1410319 .54752609 .12915039 .5410156 .11726888 .5345052 .10734049 .5284831 .099365238 .5229492 .09138998 .51741537 .08544922 .51464846 .08154297 .51464846 .07926432 .51464846 .07722982 .5152995 .07543945 .51660159 .073649089 .5179036 .07218424 .52001956 .07104492 .5229492 .0699056 .5258789 .069010417 .52978518 .068359378 .53466799 .067708339 .5395508 .06738281 .54541018 .06738281 .5522461 .06738281 .5571289 .06754557 .56136068 .067871097 .5649414 .06819662 .56852218 .06876627 .57161459 .06958008 .57421877 .07039388 .57682296 .07145182 .57926437 .072753909 .58154299 .07405599 .5838216 .076660159 .5866699 .080566409 .5900879 .084472659 .59350588 .09122721 .59814456 .10083008 .6040039 .110432948 .6098633 .12247721 .6156413 .13696289 .6213379 .15144857 .6270345 .1673991 .63183596 .18481446 .6357422 .20222982 .63964846 .22054036 .64160159 .2397461 .64160159 .27034507 .64160159 .29711915 .6372833 .32006837 .62864688 .34301759 .62002059 .36206056 .60821536 .37719728 .5932312 .39233399 .5782471 .40364585 .56081649 .4111328 .54093936 .41861979 .5210724 .42236329 .49989829 .42236329 .477417 .42236329 .45721437 .4205729 .4370931 .4169922 .41705323 .41341148 .39702354 .4058431 .3753611 .3942871 .35206605 .3827311 .32877098 .3660482 .3028717 .34423829 .2743683 .32242839 .24586487 .29345704 .21304322 .25732423 .17590332L.15722656 .07128906H.4321289C.43473307 .07128906 .43725587 .07055664 .43969728 .0690918 .44213868 .06762695 .44425456 .06542969 .44604493 .0625 .4478353 .059570314 .44913737 .055908204 .44995118 .051513673 .45076499 .04711914 .45117188 .041992189 .45117188 .036132814Z"/>
<clipPath id="clip_13">
<path transform="matrix(1,0,0,-1,0,595.2756)" d="M-257698020-257697440H257698050V257698630H-257698020Z"/>
</clipPath>
<clipPath id="clip_14">
<path transform="matrix(1,0,0,-1,0,595.2756)" d="M440 415H529V536H440Z"/>
</clipPath>
<clipPath id="clip_15">
<path transform="matrix(1,0,0,-1,0,595.2756)" d="M-257698020-257697440H257698050V257698630H-257698020Z"/>
</clipPath>
<clipPath id="clip_16">
<path transform="matrix(1,0,0,-1,0,595.2756)" d="M440 256H529V377H440Z"/>
</clipPath>
<clipPath id="clip_17">
<path transform="matrix(1,0,0,-1,0,595.2756)" d="M-257698020-257697440H257698050V257698630H-257698020Z"/>
</clipPath>
<clipPath id="clip_18">
<path transform="matrix(1,0,0,-1,0,595.2756)" d="M440 103H529V224H440Z"/>
</clipPath>
<clipPath id="clip_19">
<path transform="matrix(1,0,0,-1,0,595.2756)" d="M55 48H162V85H55Z"/>
</clipPath>
<path id="font_12_2" d="M.16796875 .0126953129C.16796875 .0100911459 .1673177 .0078125 .16601563 .005859375 .16471355 .00390625 .16243489 .0023600262 .15917969 .0012207031 .15592449 .00008138021 .15161133-.0008951823 .14624024-.0017089844 .14086914-.0025227864 .13411458-.0029296876 .12597656-.0029296876 .11816406-.0029296876 .11149088-.0025227864 .10595703-.0017089844 .10042318-.0008951823 .09602865 .00008138021 .09277344 .0012207031 .08951823 .0023600262 .087239589 .00390625 .0859375 .005859375 .084635417 .0078125 .083984378 .0100911459 .083984378 .0126953129V.6191406C.083984378 .6217448 .0847168 .62402346 .08618164 .62597659 .087646488 .6279297 .09008789 .6294759 .09350586 .63061526 .09692383 .6317546 .10131836 .63273116 .10668945 .6335449 .11206055 .6343587 .118489589 .6347656 .12597656 .6347656 .13411458 .6347656 .14086914 .6343587 .14624024 .6335449 .15161133 .63273116 .15592449 .6317546 .15917969 .63061526 .16243489 .6294759 .16471355 .6279297 .16601563 .62597659 .1673177 .62402346 .16796875 .6217448 .16796875 .6191406V.0126953129Z"/>
<path id="font_12_12" d="M.453125 .012207031C.453125 .009602864 .45247398 .007405599 .45117188 .0056152346 .44986979 .0038248699 .4477539 .0022786458 .44482423 .0009765625 .44189454-.00032552085 .43782554-.0013020834 .4326172-.001953125 .42740885-.0026041668 .42089845-.0029296876 .41308595-.0029296876 .4049479-.0029296876 .39827476-.0026041668 .3930664-.001953125 .38785807-.0013020834 .38378907-.00032552085 .38085938 .0009765625 .3779297 .0022786458 .3758138 .0038248699 .37451173 .0056152346 .37320964 .007405599 .3725586 .009602864 .3725586 .012207031V.26953126C.3725586 .29459635 .37060548 .31477867 .36669923 .33007813 .36279298 .3453776 .35709635 .3585612 .34960938 .3696289 .3421224 .38069663 .33243815 .38916017 .32055665 .39501954 .30867515 .4008789 .29492188 .4038086 .27929688 .4038086 .2591146 .4038086 .2389323 .39664714 .21875 .38232423 .1985677 .3680013 .17740886 .34700523 .15527344 .31933595V.012207031C.15527344 .009602864 .15462239 .007405599 .15332031 .0056152346 .15201824 .0038248699 .14990235 .0022786458 .14697266 .0009765625 .14404297-.00032552085 .13997396-.0013020834 .13476563-.001953125 .1295573-.0026041668 .12288412-.0029296876 .114746097-.0029296876 .106933597-.0029296876 .10042318-.0026041668 .095214847-.001953125 .09000651-.0013020834 .08585612-.00032552085 .08276367 .0009765625 .07967123 .0022786458 .077555339 .0038248699 .076416019 .0056152346 .075276698 .007405599 .07470703 .009602864 .07470703 .012207031V.45166017C.07470703 .4542643 .07519531 .45646159 .076171878 .45825196 .07714844 .46004234 .07910156 .46166993 .08203125 .46313478 .08496094 .4645996 .08870443 .46557618 .09326172 .46606446 .09781901 .46655274 .10384115 .46679688 .111328128 .46679688 .118489589 .46679688 .124430339 .46655274 .12915039 .46606446 .13387044 .46557618 .13753255 .4645996 .14013672 .46313478 .14274089 .46166993 .14461263 .46004234 .14575196 .45825196 .14689128 .45646159 .14746094 .4542643 .14746094 .45166017V.3935547C.17220052 .42122398 .19685872 .44148765 .22143555 .4543457 .24601238 .46720378 .27083335 .4736328 .29589845 .4736328 .3251953 .4736328 .34985353 .4686686 .36987306 .45874024 .38989259 .44881187 .40608726 .43554688 .41845704 .4189453 .4308268 .40234376 .43969728 .3828939 .44506837 .3605957 .45043946 .33829753 .453125 .31152345 .453125 .28027345V.012207031Z"/>
<path id="font_12_14" d="M.4790039 .23852539C.4790039 .20008342 .47485353 .16554769 .46655274 .13491822 .45825196 .104288738 .44604493 .078297939 .42993165 .0569458 .41381837 .03560384 .39388023 .01914978 .3701172 .007583618 .34635417-.003982544 .3191732-.009765625 .28857423-.009765625 .27555339-.009765625 .26350913-.008463542 .2524414-.005859375 .2413737-.0032552083 .23055013 .00081380209 .2199707 .0063476564 .20939128 .011891683 .19889324 .018900553 .18847656 .027374268 .17805989 .03584798 .16699219 .04578654 .15527344 .05718994V-.1621399C.15527344-.16473389 .15462239-.16700745 .15332031-.16896057 .15201824-.1709137 .14990235-.17253621 .14697266-.17382813 .14404297-.1751302 .13997396-.17610677 .13476563-.17675781 .1295573-.17740886 .12288412-.17773438 .114746097-.17773438 .106933597-.17773438 .10042318-.17740886 .095214847-.17675781 .09000651-.17610677 .08585612-.1751302 .08276367-.17382813 .07967123-.17252605 .077555339-.17089844 .076416019-.16894531 .075276698-.16699219 .07470703-.16471355 .07470703-.16210938V.45166017C.07470703 .45458985 .07519531 .45694987 .076171878 .45874024 .07714844 .4605306 .07910156 .4620768 .08203125 .4633789 .08496094 .464681 .08870443 .46557618 .09326172 .46606446 .09781901 .46655274 .10335287 .46679688 .10986328 .46679688 .11669922 .46679688 .12231445 .46655274 .12670899 .46606446 .13110352 .46557618 .13476563 .464681 .13769531 .4633789 .140625 .4620768 .1426595 .4605255 .14379883 .45872499 .14493816 .4569346 .14550781 .45457459 .14550781 .4516449V.39250184C.15885417 .40618388 .17171224 .41807557 .18408203 .42817689 .19645183 .4382782 .208903 .44666545 .22143555 .45333863 .2339681 .46002198 .24682617 .46507264 .26000978 .4684906 .27319337 .47191874 .28710938 .4736328 .3017578 .4736328 .33365885 .4736328 .36083985 .46744285 .38330079 .45506288 .40576173 .4426829 .42407228 .42573548 .43823243 .40422059 .45239259 .38271586 .46272788 .3577067 .46923829 .32919313 .4757487 .3006897 .4790039 .27046714 .4790039 .23852539M.39404298 .22924805C.39404298 .2517395 .39233399 .27349855 .38891603 .29452516 .38549806 .31555177 .37963868 .33421327 .3713379 .35050965 .3630371 .36680604 .35188804 .37984214 .33789063 .38961793 .32389323 .3994039 .30647788 .40429688 .28564454 .40429688 .27522788 .40429688 .26497398 .40274558 .2548828 .39964295 .24479167 .3965505 .23453777 .3916626 .2241211 .38497926 .21370442 .3782959 .20279949 .36949159 .19140625 .35856629 .18001302 .347641 .16796875 .33418785 .15527344 .3182068V.143219C.17740886 .1161499 .19840496 .09543864 .21826172 .081085208 .23811849 .06674194 .2589518 .059570314 .28076173 .059570314 .300944 .059570314 .31827799 .064458217 .33276368 .07423401 .34724937 .08401998 .3589681 .09706116 .36791993 .113357547 .37687174 .12965393 .38346354 .14790853 .3876953 .16812134 .3919271 .18833415 .39404298 .20870972 .39404298 .22924805Z"/>
<path id="font_12_18" d="M.45117188 .012207031C.45117188 .009602864 .4506022 .007405599 .4494629 .0056152346 .44832359 .0038248699 .44628907 .0022786458 .44335938 .0009765625 .4404297-.00032552085 .43660484-.0013020834 .43188478-.001953125 .4271647-.0026041668 .42138673-.0029296876 .41455079-.0029296876 .4070638-.0029296876 .4009603-.0026041668 .39624024-.001953125 .39152018-.0013020834 .3877767-.00032552085 .38500978 .0009765625 .38224284 .0022786458 .3803711 .0038248699 .37939454 .0056152346 .37841798 .007405599 .3779297 .009602864 .3779297 .012207031V.0703125C.3528646 .042470296 .328125 .022160849 .30371095 .009384155 .27929688-.003382365 .25455729-.009765625 .22949219-.009765625 .20019531-.009765625 .17553711-.004877726 .15551758 .0048980715 .13549805 .014673869 .11930338 .027949015 .106933597 .04472351 .094563808 .06150818 .08569336 .081059779 .080322269 .103378299 .07495117 .12570699 .072265628 .15283711 .072265628 .18476868V.4516449C.072265628 .45424906 .07283529 .45644633 .07397461 .4582367 .07511393 .46003724 .077311199 .46166993 .080566409 .46313478 .08382162 .4645996 .08805338 .46557618 .09326172 .46606446 .098470058 .46655274 .10498047 .46679688 .11279297 .46679688 .12060547 .46679688 .12711589 .46655274 .13232422 .46606446 .13753255 .46557618 .14168294 .4645996 .14477539 .46313478 .14786785 .46166993 .15006511 .46003724 .15136719 .4582367 .15266927 .45644633 .15332031 .45424906 .15332031 .4516449V.19548035C.15332031 .16973369 .15519206 .14911907 .15893555 .13363648 .16267903 .11815389 .16837566 .10494995 .17602539 .09402466 .18367513 .083109539 .19335938 .074635829 .20507813 .068603519 .21679688 .06258138 .23046875 .059570314 .24609375 .059570314 .26627604 .059570314 .28637696 .06677246 .30639649 .08117676 .32641603 .095581058 .34765626 .11669922 .3701172 .14453125V.45166017C.3701172 .4542643 .37068687 .45646159 .37182618 .45825196 .37296549 .46004234 .37516276 .46166993 .37841798 .46313478 .3816732 .4645996 .38582359 .46557618 .39086915 .46606446 .3959147 .46655274 .4025065 .46679688 .41064454 .46679688 .41845704 .46679688 .42496745 .46655274 .43017579 .46606446 .43538413 .46557618 .43945313 .4645996 .4423828 .46313478 .4453125 .46166993 .44750978 .46004234 .4489746 .45825196 .45043946 .45646159 .45117188 .4542643 .45117188 .45166017V.012207031Z"/>
<path id="font_12_17" d="M.30322267 .043945314C.30322267 .034505208 .30257163 .027018229 .30126954 .021484375 .29996745 .015950522 .2980143 .011881511 .29541017 .009277344 .292806 .0066731774 .28889976 .004231771 .2836914 .001953125 .27848307-.00032552085 .27254234-.0021972657 .26586915-.0036621094 .25919596-.005126953 .25211589-.0063476564 .2446289-.0073242189 .23714192-.008300781 .22965496-.0087890629 .22216797-.0087890629 .19938152-.0087890629 .17985027-.0057729089 .16357422 .0002593994 .14729817 .00630188 .13395183 .0154418949 .123535159 .027679444 .11311849 .039916994 .10555013 .055414838 .10083008 .07417297 .09611002 .092931117 .09375 .11503601 .09375 .14048767V.39794923H.032226564C.02734375 .39794923 .0234375 .40055339 .020507813 .40576173 .017578125 .41097007 .016113282 .4194336 .016113282 .43115235 .016113282 .43733726 .016520182 .44254557 .017333985 .44677735 .018147788 .45100913 .019205729 .45450846 .020507813 .4572754 .021809897 .46004234 .02351888 .46199546 .025634766 .46313478 .02775065 .46427409 .030110678 .46484376 .032714845 .46484376H.09375V.56933596C.09375 .57161459 .094319667 .57373049 .095458988 .5756836 .096598308 .5776367 .098714198 .5793457 .10180664 .58081057 .104899089 .5822754 .10904948 .5833333 .11425781 .5839844 .11946615 .58463546 .12597656 .58496096 .13378906 .58496096 .14192708 .58496096 .14860027 .58463546 .1538086 .5839844 .15901692 .5833333 .16308594 .5822754 .16601563 .58081057 .16894531 .5793457 .1710612 .5776367 .17236328 .5756836 .17366536 .57373049 .1743164 .57161459 .1743164 .56933596V.46484376H.28710938C.28971354 .46484376 .2919922 .46427409 .2939453 .46313478 .29589845 .46199546 .29760743 .46004234 .29907228 .4572754 .3005371 .45450846 .30159507 .45100913 .3022461 .44677735 .30289714 .44254557 .30322267 .43733726 .30322267 .43115235 .30322267 .4194336 .3017578 .41097007 .29882813 .40576173 .29589845 .40055339 .2919922 .39794923 .28710938 .39794923H.1743164V.15211487C.1743164 .12176005 .17879232 .09882609 .18774414 .08331299 .19669597 .06781006 .21272786 .060058595 .23583985 .060058595 .24332683 .060058595 .25 .060791017 .25585938 .06225586 .26171876 .0637207 .2669271 .06526693 .27148438 .06689453 .27604167 .06852213 .2799479 .07006836 .28320313 .0715332 .28645835 .07299805 .28938804 .07373047 .2919922 .07373047 .29361979 .07373047 .29516603 .07332357 .29663087 .072509769 .2980957 .07169596 .29923503 .07014974 .30004884 .067871097 .30086265 .065592449 .30159507 .0625 .3022461 .05859375 .30289714 .0546875 .30322267 .049804689 .30322267 .043945314Z"/>
<clipPath id="clip_20">
<path transform="matrix(1,0,0,-1,0,595.2756)" d="M432 24H539V85H432Z"/>
</clipPath>
<path id="font_12_3" d="M.49609376 .013671875C.49609376 .011067708 .49552409 .008707683 .49438478 .006591797 .49324546 .0044759118 .4910482 .002766927 .48779298 .0014648438 .48453776 .00016276042 .48014323-.0008951823 .47460938-.0017089844 .46907554-.0025227864 .46191407-.0029296876 .453125-.0029296876 .44173179-.0029296876 .43245445-.0024414063 .42529298-.0014648438 .4181315-.00048828127 .4127604 .0013020834 .4091797 .00390625 .40559898 .0065104167 .40266929 .0094401049 .40039063 .0126953129L.16796875 .32861329V.0126953129C.16796875 .010416667 .1673177 .008219401 .16601563 .0061035158 .16471355 .0039876305 .16243489 .0023600262 .15917969 .0012207031 .15592449 .00008138021 .15161133-.0008951823 .14624024-.0017089844 .14086914-.0025227864 .13411458-.0029296876 .12597656-.0029296876 .11816406-.0029296876 .11149088-.0025227864 .10595703-.0017089844 .10042318-.0008951823 .09602865 .00008138021 .09277344 .0012207031 .08951823 .0023600262 .087239589 .0039876305 .0859375 .0061035158 .084635417 .008219401 .083984378 .010416667 .083984378 .0126953129V.6191406C.083984378 .6217448 .084635417 .62402346 .0859375 .62597659 .087239589 .6279297 .08951823 .6294759 .09277344 .63061526 .09602865 .6317546 .10042318 .63273116 .10595703 .6335449 .11149088 .6343587 .11816406 .6347656 .12597656 .6347656 .13411458 .6347656 .14086914 .6343587 .14624024 .6335449 .15161133 .63273116 .15592449 .6317546 .15917969 .63061526 .16243489 .6294759 .16471355 .6279297 .16601563 .62597659 .1673177 .62402346 .16796875 .6217448 .16796875 .6191406V.3383789L.39160157 .6191406C.3935547 .6220703 .39583335 .6245117 .3984375 .62646487 .40104167 .62841799 .40421549 .6299642 .40795899 .6311035 .41170249 .63224288 .41625978 .633138 .42163087 .63378909 .42700196 .6344401 .43391929 .6347656 .4423828 .6347656 .45084635 .6347656 .45768229 .6343587 .46289063 .6335449 .46809898 .63273116 .47224937 .63167318 .4753418 .6303711 .47843424 .62906906 .48055015 .6274414 .48168946 .6254883 .48282878 .62353518 .48339845 .62141928 .48339845 .6191406 .48339845 .6149089 .48234049 .61067709 .4802246 .6064453 .47810874 .60221359 .4741211 .5963542 .46826173 .5888672L.25878907 .3383789 .484375 .03857422C.48990885 .030110678 .49324546 .024332682 .49438478 .021240235 .49552409 .018147788 .49609376 .015625 .49609376 .013671875Z"/>
<path id="font_12_13" d="M.48339845 .23657227C.48339845 .20073445 .47867839 .16774495 .46923829 .13760376 .4597982 .10746256 .4457194 .08147176 .42700196 .059631349 .40828453 .037801107 .38484703 .020777384 .35668946 .008560181 .3285319-.0036570233 .29589845-.009765625 .25878907-.009765625 .22265625-.009765625 .19116211-.004389445 .16430664 .006362915 .13745117 .017115275 .11507162 .032755536 .09716797 .05328369 .07926432 .07381185 .06591797 .098739627 .057128908 .12806702 .048339845 .15739441 .043945314 .19063314 .043945314 .2277832 .043945314 .263621 .048583986 .2966105 .057861329 .3267517 .06713867 .3568929 .08113607 .38287864 .099853519 .40470887 .11857096 .4265493 .14192708 .4434967 .16992188 .45555116 .19791667 .4676056 .23063152 .4736328 .2680664 .4736328 .30419923 .4736328 .33569337 .46825663 .36254884 .45750428 .3894043 .44675193 .41178385 .43111167 .4296875 .4105835 .44759117 .39005534 .4610189 .36512757 .4699707 .33580018 .47892253 .30647279 .48339845 .27339683 .48339845 .23657227M.3984375 .23120117C.3984375 .25499473 .39624024 .27748619 .3918457 .29867555 .38745118 .3198649 .38020835 .33844505 .3701172 .3544159 .36002604 .37038676 .34635417 .38301597 .32910157 .39230348 .31184898 .40160118 .2903646 .40625 .26464845 .40625 .24088542 .40625 .22045899 .40201316 .20336914 .39353944 .1862793 .3850657 .17220052 .3730825 .16113281 .35758973 .15006511 .34210716 .1418457 .32377116 .13647461 .3025818 .13110352 .2814026 .12841797 .2582601 .12841797 .2331543 .12841797 .20903524 .13061524 .18638103 .13500977 .16519165 .1394043 .14400228 .14672852 .12550354 .15698242 .109695438 .16723633 .09388733 .18098958 .081334438 .19824219 .07203674 .2154948 .06274923 .23697917 .05810547 .2626953 .05810547 .2861328 .05810547 .30647788 .062342328 .32373048 .07081604 .34098307 .07928976 .35514323 .09118652 .36621095 .10650635 .37727867 .12183634 .38541667 .14009094 .390625 .16127014 .39583335 .18245952 .3984375 .20576985 .3984375 .23120117Z"/>
<path id="font_12_15" d="M.33154298 .42285157C.33154298 .4156901 .33138023 .40966798 .3310547 .40478517 .33072917 .39990235 .33007813 .39607749 .32910157 .39331056 .328125 .3905436 .3269043 .38842774 .32543946 .3869629 .3239746 .38549806 .3219401 .38476563 .31933595 .38476563 .31673179 .38476563 .31355796 .38549806 .30981446 .3869629 .30607096 .38842774 .3018392 .38989259 .29711915 .39135743 .29239909 .39282228 .28710938 .39420573 .28125 .3955078 .27539063 .3968099 .26904298 .39746095 .26220704 .39746095 .254069 .39746095 .24609375 .39583335 .23828125 .39257813 .23046875 .3893229 .22224935 .3839518 .21362305 .37646485 .20499675 .36897788 .19596355 .35904948 .18652344 .3466797 .17708333 .3343099 .16666667 .3191732 .15527344 .30126954V.012207031C.15527344 .009602864 .15462239 .007405599 .15332031 .0056152346 .15201824 .0038248699 .14990235 .0022786458 .14697266 .0009765625 .14404297-.00032552085 .13997396-.0013020834 .13476563-.001953125 .1295573-.0026041668 .12288412-.0029296876 .114746097-.0029296876 .106933597-.0029296876 .10042318-.0026041668 .095214847-.001953125 .09000651-.0013020834 .08585612-.00032552085 .08276367 .0009765625 .07967123 .0022786458 .077555339 .0038248699 .076416019 .0056152346 .075276698 .007405599 .07470703 .009602864 .07470703 .012207031V.45166017C.07470703 .4542643 .07519531 .45646159 .076171878 .45825196 .07714844 .46004234 .07910156 .46166993 .08203125 .46313478 .08496094 .4645996 .08870443 .46557618 .09326172 .46606446 .09781901 .46655274 .10384115 .46679688 .111328128 .46679688 .118489589 .46679688 .124430339 .46655274 .12915039 .46606446 .13387044 .46557618 .13753255 .4645996 .14013672 .46313478 .14274089 .46166993 .14461263 .46004234 .14575196 .45825196 .14689128 .45646159 .14746094 .4542643 .14746094 .45166017V.3876953C.1595052 .40527345 .17081706 .41959635 .18139649 .43066407 .1919759 .44173179 .20198567 .45043946 .21142578 .4567871 .22086589 .46313478 .23022461 .4675293 .23950196 .4699707 .2487793 .4724121 .25813804 .4736328 .26757813 .4736328 .2718099 .4736328 .27661134 .47338868 .28198243 .4729004 .28735353 .4724121 .29296876 .47151695 .29882813 .47021485 .3046875 .46891276 .3099772 .4674479 .31469728 .4658203 .31941734 .46419273 .3227539 .4625651 .32470704 .4609375 .32666017 .4593099 .32796226 .45776368 .32861329 .45629884 .3292643 .45483399 .32983399 .45296226 .33032228 .4506836 .33081056 .44840495 .33113609 .44506837 .33129884 .44067384 .33146159 .4362793 .33154298 .43033854 .33154298 .42285157Z"/>
<path id="font_12_8" d="M.45117188 .01222229C.45117188 .009618123 .4506022 .007334391 .4494629 .0053710939 .44832359 .0034179688 .44637046 .0018717448 .44360353 .0007324219 .44083659-.00040690104 .43717448-.0013020834 .4326172-.001953125 .4280599-.0026041668 .42252604-.0029296876 .41601563-.0029296876 .4091797-.0029296876 .40348307-.0026041668 .39892579-.001953125 .3943685-.0013122559 .390625-.0004272461 .3876953 .0007019043 .38476563 .0018412272 .38264976 .003382365 .38134767 .0053253176 .38004557 .00726827 .37939454 .009531657 .37939454 .0121154789V.06990051C.35628257 .044815065 .3322754 .025263468 .30737306 .011245728 .2824707-.0027618409 .25520835-.009765625 .22558594-.009765625 .19335938-.009765625 .16585286-.0034942628 .1430664 .009048462 .120279949 .021591187 .10180664 .038533529 .087646488 .05987549 .07348633 .08122762 .06315104 .10631815 .056640626 .1351471 .050130208 .1639862 .046875 .19437664 .046875 .22631836 .046875 .26410929 .05094401 .29823814 .05908203 .32870484 .067220058 .35917155 .07926432 .38515727 .095214847 .406662 .11116537 .42817689 .13094075 .4447174 .15454102 .45628358 .17814128 .46784974 .20540364 .4736328 .23632813 .4736328 .26204429 .4736328 .28556315 .46801249 .30688478 .45677186 .3282064 .44553123 .34928385 .42899577 .3701172 .40716554V.6630554C.3701172 .66533407 .37068687 .6675313 .37182618 .6696472 .37296549 .67177328 .37516276 .67340597 .37841798 .6745453 .3816732 .67569479 .38582359 .67667648 .39086915 .67749026 .3959147 .678304 .40234376 .67871096 .41015626 .67871096 .41829429 .67871096 .42496745 .678304 .43017579 .67749026 .43538413 .67667648 .43945313 .6756999 .4423828 .67456057 .4453125 .6734212 .44750978 .6717885 .4489746 .6696625 .45043946 .6675466 .45117188 .6653493 .45117188 .6630707V.01222229M.3701172 .32113648C.34830729 .34820558 .32722984 .36883036 .30688478 .38301087 .2865397 .39720155 .26529948 .40429688 .24316406 .40429688 .22265625 .40429688 .20524089 .3994039 .19091797 .38961793 .17659505 .37984214 .16495769 .36696879 .15600586 .35099793 .14705403 .33502708 .14054363 .3169352 .13647461 .2967224 .1324056 .2765096 .1303711 .25597129 .1303711 .23510742 .1303711 .21294149 .13208008 .19126384 .13549805 .17007447 .13891602 .14888509 .14485677 .13006084 .15332031 .113601688 .16178386 .09714254 .17301433 .0839386 .18701172 .07398987 .20100911 .06405131 .21858724 .05908203 .2397461 .05908203 .25048829 .05908203 .26082359 .060546876 .27075196 .06347656 .28068034 .06641642 .29085288 .07130941 .30126954 .07815552 .3116862 .085001628 .32259117 .09388733 .33398438 .10481262 .3453776 .115737918 .35742188 .12919109 .3701172 .14517212V.32113648Z"/>
<path id="font_12_4" d="M.4116211 .036621095C.4116211 .030110678 .41129557 .024658204 .41064454 .020263672 .4099935 .01586914 .40893556 .012125651 .4074707 .009033203 .40600587 .0059407555 .40421549 .0036621094 .4020996 .0021972657 .39998374 .0007324219 .39746095 0 .39453126 0H.115234378C.1077474 0 .10066732 .0025227864 .09399414 .0075683596 .08732096 .012613933 .083984378 .021484375 .083984378 .034179689V.6191406C.083984378 .6217448 .084635417 .62402346 .0859375 .62597659 .087239589 .6279297 .08951823 .6294759 .09277344 .63061526 .09602865 .6317546 .10042318 .63273116 .10595703 .6335449 .11149088 .6343587 .11816406 .6347656 .12597656 .6347656 .13411458 .6347656 .14086914 .6343587 .14624024 .6335449 .15161133 .63273116 .15592449 .6317546 .15917969 .63061526 .16243489 .6294759 .16471355 .6279297 .16601563 .62597659 .1673177 .62402346 .16796875 .6217448 .16796875 .6191406V.072753909H.39453126C.39746095 .072753909 .39998374 .072021488 .4020996 .07055664 .40421549 .0690918 .40600587 .066975917 .4074707 .064208988 .40893556 .06144206 .4099935 .05777995 .41064454 .053222658 .41129557 .048665365 .4116211 .04313151 .4116211 .036621095Z"/>
<path id="font_12_16" d="M.35058595 .13148499C.35058595 .1090037 .34643556 .08896383 .33813478 .07136536 .32983399 .053777059 .31803385 .038950605 .30273438 .026885987 .2874349 .014831543 .26920573 .0057118737 .24804688-.00047302247 .22688802-.006668091 .20361328-.009765625 .17822266-.009765625 .16259766-.009765625 .14770508-.008544922 .13354492-.0061035158 .119384769-.0036621094 .10668945-.00056966146 .095458988 .0031738282 .084228519 .006917318 .07470703 .010823567 .06689453 .014892578 .05908203 .018961588 .053385419 .022623698 .049804689 .025878907 .046223958 .029134116 .043619794 .033691408 .041992189 .03955078 .040364583 .045410158 .03955078 .053385419 .03955078 .06347656 .03955078 .06966146 .0398763 .07486979 .040527345 .07910156 .041178388 .083333339 .041992189 .086751308 .04296875 .08935547 .043945314 .09195963 .045328779 .09383138 .04711914 .0949707 .048909505 .09611002 .05094401 .09667969 .053222658 .09667969 .056803388 .09667969 .062093099 .09448242 .0690918 .09008789 .07609049 .08569336 .0847168 .08089193 .0949707 .075683597 .10522461 .07047526 .11735026 .06567383 .13134766 .061279298 .14534505 .056884767 .16145833 .0546875 .1796875 .0546875 .19335938 .0546875 .20572917 .056152345 .21679688 .05908203 .22786458 .062021894 .23746746 .066345218 .24560547 .072052 .2537435 .07775879 .26000978 .085016887 .2644043 .093826297 .26879884 .102635707 .2709961 .113072719 .2709961 .12513733 .2709961 .13751729 .26782228 .14794414 .2614746 .15641785 .25512696 .16489156 .2467448 .17238362 .23632813 .17889405 .22591146 .18541463 .2141927 .19119771 .20117188 .19624329 .18815105 .20129903 .17472331 .20659383 .16088867 .21212769 .14705403 .2176717 .13354492 .22394817 .12036133 .23095703 .107177738 .2379659 .0953776 .246521 .08496094 .2566223 .07454427 .26672364 .06616211 .27877809 .059814454 .29278565 .053466798 .3067932 .05029297 .32357279 .05029297 .3431244 .05029297 .36039735 .05362956 .37693278 .060302736 .3927307 .066975917 .40853883 .07698568 .4223887 .09033203 .4342804 .10367838 .44618226 .12036133 .4557139 .14038086 .46287538 .16040039 .470047 .18375652 .4736328 .21044922 .4736328 .22216797 .4736328 .23388672 .472641 .24560547 .47065736 .25732423 .4686737 .26790367 .4661967 .27734376 .46322633 .28678385 .46025596 .29484049 .45703636 .30151368 .4535675 .30818687 .45009867 .31323243 .44704185 .3166504 .44439698 .32006837 .4417521 .32234703 .43945313 .32348634 .4375 .32462565 .43554688 .32543946 .4333496 .32592774 .4309082 .32641603 .4284668 .3269043 .42545573 .32739259 .421875 .32788087 .41829429 .328125 .41389976 .328125 .4086914 .328125 .40315757 .32788087 .3983561 .32739259 .3942871 .3269043 .3902181 .32609049 .3868815 .32495118 .38427735 .32381187 .3816732 .32242839 .37980143 .32080079 .3786621 .3191732 .3775228 .3173828 .37695313 .3154297 .37695313 .3125 .37695313 .30826823 .37876893 .30273438 .3824005 .29720054 .3860321 .29003907 .38991294 .28125 .39404298 .27246095 .398173 .26212565 .40205384 .25024415 .40568543 .23836263 .40931703 .22477214 .4111328 .20947266 .4111328 .19580078 .4111328 .18375652 .4095815 .17333985 .40647889 .16292317 .40338645 .15437825 .39898683 .14770508 .39328004 .1410319 .38757325 .13598633 .38080345 .13256836 .37297059 .12915039 .36514793 .1274414 .3566691 .1274414 .34753419 .1274414 .3348287 .13069661 .3241577 .13720703 .31552125 .14371746 .30688478 .15218099 .29930625 .16259766 .29278565 .17301433 .28627525 .18489583 .28041078 .19824219 .27519227 .21158855 .26998393 .22517903 .26460777 .23901367 .25906373 .2528483 .25352989 .26652018 .24733989 .2800293 .24049378 .29353843 .23364766 .3055013 .22533672 .31591798 .21556092 .32633464 .20578511 .3347168 .1940511 .34106446 .18035889 .3474121 .16667684 .35058595 .15038555 .35058595 .13148499Z"/>
<clipPath id="clip_21">
<path transform="matrix(1,0,0,-1,0,595.2756)" d="M-257698020-257697440H257698050V257698630H-257698020Z"/>
</clipPath>
<clipPath id="clip_22">
<path transform="matrix(1,0,0,-1,0,595.2756)" d="M659 136H735V512H659Z"/>
</clipPath>
<clipPath id="clip_23">
<path transform="matrix(1,0,0,-1,0,595.2756)" d="M659 136H735V512H659Z"/>
</clipPath>
<clipPath id="clip_24">
<path transform="matrix(1,0,0,-1,0,595.2756)" d="M642 50H749V87H642Z"/>
</clipPath>
<path id="font_12_6" d="M.61328127 .32325746C.61328127 .2720693 .6072591 .22593689 .59521487 .18486023 .5831706 .14378357 .56518557 .108820598 .54125979 .07997131 .517334 .05112203 .4873047 .02895101 .45117188 .013458252 .41503907-.0020243328 .37288413-.009765625 .32470704-.009765625 .277181-.009765625 .23608399-.0026753743 .20141602 .011505127 .16674805 .025685629 .13810222 .04630534 .115478519 .07336426 .09285482 .10042318 .07600912 .13400269 .064941409 .17410279 .0538737 .21420288 .048339845 .2603353 .048339845 .3125 .048339845 .3623759 .05436198 .40768943 .06640625 .44844056 .07845052 .48919169 .09651693 .52382919 .12060547 .5523529 .14469402 .58087667 .17480469 .6028798 .2109375 .6183624 .24707031 .63385519 .28922526 .64160159 .33740235 .64160159 .3839518 .64160159 .42447917 .6345927 .45898438 .62057498 .4934896 .6065572 .5222168 .5861003 .545166 .5592041 .56811526 .5323079 .5852051 .49905396 .59643557 .45944215 .607666 .41983033 .61328127 .37443543 .61328127 .32325746M.52490237 .3173828C.52490237 .35326133 .5217285 .38661195 .51538088 .4174347 .5090332 .44825746 .49845378 .475001 .48364259 .4976654 .4688314 .5203298 .449056 .53801986 .4243164 .5507355 .3995768 .5634613 .36897788 .5698242 .33251954 .5698242 .2960612 .5698242 .26546226 .562973 .24072266 .54927065 .21598308 .5355784 .19588216 .51731368 .18041992 .49447633 .16495769 .47164918 .15388997 .44498698 .1472168 .41448976 .14054363 .3840027 .13720703 .35195924 .13720703 .31835938 .13720703 .2811788 .14029949 .24693299 .14648438 .21562195 .15266927 .18431092 .16308594 .1573232 .17773438 .13465882 .19238281 .11199442 .21199544 .0943807 .23657227 .08181763 .26114909 .06926473 .2919922 .06298828 .32910157 .06298828 .3658854 .06298828 .3968099 .06983439 .421875 .08352661 .4469401 .097229007 .4671224 .115737918 .48242188 .13905335 .49772135 .16237895 .5086263 .18937175 .5151367 .22003174 .52164718 .25069175 .52490237 .2831421 .52490237 .3173828Z"/>
<clipPath id="clip_25">
<path transform="matrix(1,0,0,-1,0,595.2756)" d="M-257698020-257697440H257698050V257698630H-257698020Z"/>
</clipPath>
<clipPath id="clip_26">
<path transform="matrix(1,0,0,-1,0,595.2756)" d="M-257698020-257697440H257698050V257698630H-257698020Z"/>
</clipPath>
<clipPath id="clip_27">
<path transform="matrix(1,0,0,-1,0,595.2756)" d="M-257698020-257697440H257698050V257698630H-257698020Z"/>
</clipPath>
<clipPath id="clip_28">
<path transform="matrix(1,0,0,-1,0,595.2756)" d="M-257698020-257697440H257698050V257698630H-257698020Z"/>
</clipPath>
<clipPath id="clip_29">
<path transform="matrix(1,0,0,-1,0,595.2756)" d="M-257698020-257697440H257698050V257698630H-257698020Z"/>
</clipPath>
<clipPath id="clip_30">
<path transform="matrix(1,0,0,-1,0,595.2756)" d="M-257698020-257697440H257698050V257698630H-257698020Z"/>
</clipPath>
<clipPath id="clip_31">
<path transform="matrix(1,0,0,-1,0,595.2756)" d="M-257698020-257697440H257698050V257698630H-257698020Z"/>
</clipPath>
<clipPath id="clip_32">
<path transform="matrix(1,0,0,-1,0,595.2756)" d="M539 343H646V380H539Z"/>
</clipPath>
<path id="font_12_5" d="M.7709961 .0126953129C.7709961 .0100911459 .77034506 .0078125 .76904299 .005859375 .7677409 .00390625 .7654622 .0023600262 .76220706 .0012207031 .75895187 .00008138021 .75480148-.0008951823 .74975588-.0017089844 .74471029-.0025227864 .73811849-.0029296876 .72998049-.0029296876 .72249349-.0029296876 .71606448-.0025227864 .71069338-.0017089844 .70532229-.0008951823 .7010905 .00008138021 .69799807 .0012207031 .6949056 .0023600262 .6927083 .00390625 .69140627 .005859375 .6901042 .0078125 .6894531 .0100911459 .6894531 .0126953129V.5629883H.68847659L.4633789 .010253906C.46240235 .007975261 .4610189 .0060221354 .45922853 .0043945314 .45743815 .002766927 .45483399 .0013834635 .45141603 .00024414063 .44799806-.0008951823 .44392906-.0017089844 .43920899-.0021972657 .43448893-.0026855469 .4288737-.0029296876 .42236329-.0029296876 .41552735-.0029296876 .40966798-.0026041668 .40478517-.001953125 .39990235-.0013020834 .39583335-.00040690104 .39257813 .0007324219 .3893229 .0018717448 .38680015 .0032552083 .38500978 .0048828127 .3832194 .0065104167 .3819987 .008300781 .38134767 .010253906L.16601563 .5629883H.16552735V.0126953129C.16552735 .0100911459 .1648763 .0078125 .16357422 .005859375 .16227214 .00390625 .15999349 .0023600262 .15673828 .0012207031 .15348308 .00008138021 .1492513-.0008951823 .14404297-.0017089844 .13883464-.0025227864 .13216146-.0029296876 .12402344-.0029296876 .11621094-.0029296876 .10970052-.0025227864 .10449219-.0017089844 .09928385-.0008951823 .09513346 .00008138021 .092041019 .0012207031 .08894857 .0023600262 .08683268 .00390625 .08569336 .005859375 .08455404 .0078125 .083984378 .0100911459 .083984378 .0126953129V.59375C.083984378 .6074219 .0875651 .6171875 .09472656 .6230469 .10188802 .62890627 .10986328 .63183596 .118652347 .63183596H.1694336C.17985027 .63183596 .18896485 .6308594 .19677735 .62890627 .20458985 .6269531 .21142578 .62386068 .21728516 .6196289 .22314453 .61539718 .22802735 .61002609 .2319336 .6035156 .23583985 .5970052 .23925781 .58935549 .2421875 .5805664L.42529298 .123046878H.42773438L.61816409 .57910159C.6217448 .5888672 .62565109 .59716799 .6298828 .6040039 .63411459 .61083987 .63875326 .6162923 .6437988 .6203613 .6488444 .62443038 .65445968 .62736007 .66064456 .6291504 .6668294 .63094076 .6739909 .63183596 .6821289 .63183596H.73535159C.7402344 .63183596 .74487307 .6311035 .7492676 .6296387 .7536621 .6281738 .7574056 .6258952 .76049807 .62280276 .7635905 .61971029 .7661133 .615804 .7680664 .611084 .77001956 .60636398 .7709961 .60058596 .7709961 .59375V.0126953129Z"/>
<path id="font_12_10" d="M.44189454 .4321289C.44189454 .4207357 .4403483 .41251628 .43725587 .4074707 .43416343 .40242515 .43017579 .39990235 .42529298 .39990235H.3623047C.3736979 .38815309 .3816732 .37517295 .38623048 .3609619 .39078776 .34676109 .3930664 .33199058 .3930664 .3166504 .3930664 .29130046 .3889974 .26887513 .38085938 .24937439 .37272135 .22987366 .36108399 .2133789 .34594728 .19989014 .33081056 .18640137 .31282554 .17608135 .2919922 .16893006 .27115885 .16177877 .24804688 .15820313 .22265625 .15820313 .20475261 .15820313 .18774414 .16055806 .17163086 .16526795 .15551758 .16997783 .1430664 .1759084 .13427735 .18305969 .12841797 .17720032 .12361654 .17052715 .11987305 .16304016 .116129558 .15556336 .11425781 .14694722 .11425781 .13719177 .11425781 .12579854 .11954752 .11635844 .13012696 .10887146 .14070638 .10139465 .15478516 .09733073 .17236328 .09667969L.28710938 .091781619C.30891929 .09113058 .3289388 .08810934 .34716798 .082717899 .36539714 .077326457 .3811849 .0696462 .39453126 .059677125 .4078776 .04971822 .41829429 .0374705 .42578126 .02293396 .43326823 .00839742 .43701173-.008509318 .43701173-.027786255 .43701173-.048039754 .43277995-.06731161 .4243164-.08560181 .41585288-.10390218 .40291343-.11999003 .38549806-.13386536 .36808268-.14775086 .34586589-.15869649 .31884767-.16670227 .29182945-.17470806 .25992839-.17871094 .22314453-.17871094 .18766277-.17871094 .1574707-.17569478 .13256836-.16966248 .107666019-.16364034 .087239589-.15541585 .07128906-.14498902 .055338544-.13457234 .04378255-.12211609 .036621095-.10762024 .029459635-.09312439 .025878907-.07740275 .025878907-.060455324 .025878907-.049713136 .02718099-.03929138 .029785157-.029190064 .032389326-.019088746 .036376954-.009475708 .041748048-.00035095216 .04711914 .008763631 .053792318 .017471314 .061767579 .025772095 .069742839 .03408305 .078938808 .042312623 .08935547 .050460817 .073404949 .058629354 .061604818 .06892395 .053955079 .081344608 .04630534 .09377543 .04248047 .10718282 .04248047 .12156677 .04248047 .14150493 .04654948 .1593221 .0546875 .17501831 .06282552 .19071453 .072916667 .20477295 .08496094 .2171936 .07486979 .22921753 .06689453 .24278768 .061035158 .25790406 .05517578 .27302043 .052246095 .29130046 .052246095 .31274415 .052246095 .33776856 .056477865 .36019389 .064941409 .38002015 .073404949 .3998464 .085123699 .4165853 .100097659 .43023683 .11507162 .44388835 .13305664 .45437113 .15405274 .46168519 .17504883 .46899925 .19791667 .47265626 .22265625 .47265626 .23600261 .47265626 .24845378 .4719645 .26000978 .47058106 .27156578 .46920777 .2823893 .46729533 .29248048 .46484376H.42529298C.4308268 .46484376 .4349772 .4621582 .43774415 .4567871 .44051109 .45141603 .44189454 .44319663 .44189454 .4321289M.31591798 .3161621C.31591798 .34602867 .30769859 .36932374 .29125978 .38604737 .27482096 .402771 .25146485 .4111328 .2211914 .4111328 .2055664 .4111328 .1919759 .40853373 .18041992 .40333558 .16886394 .39814759 .15926107 .39100648 .15161133 .38191224 .1439616 .372818 .13826497 .36234538 .13452149 .35049439 .130778 .3386434 .12890625 .32622276 .12890625 .31323243 .12890625 .28434245 .13712566 .26161704 .15356446 .24505615 .17000325 .22849529 .19303386 .22021485 .22265625 .22021485 .23860677 .22021485 .2524414 .22272747 .26416017 .22775269 .2758789 .23278809 .28556315 .23977153 .2932129 .248703 .30086265 .2576345 .30655924 .26794435 .31030274 .27963258 .31404624 .2913208 .31591798 .3034973 .31591798 .3161621M.3564453-.032165529C.3564453-.013153076 .3487142 .0015106201 .33325196 .0118255619 .3177897 .022150675 .296875 .027638754 .2705078 .028289795L.15673828 .032226564C.14632161 .02403768 .13777669 .016255698 .13110352 .008880615 .124430339 .0015055338 .119140628-.0055389406 .115234378-.012252808 .111328128-.018966675 .10864258-.025599162 .107177738-.03215027 .10571289-.038711549 .10498047-.0454305 .10498047-.05230713 .10498047-.0736084 .115722659-.08974711 .13720703-.10072327 .1586914-.111699428 .18863933-.1171875 .22705078-.1171875 .25146485-.1171875 .27189128-.11481222 .28833009-.110061649 .3047689-.10531107 .31803385-.09900411 .328125-.09114075 .33821617-.08327738 .34545899-.07426453 .34985353-.06410217 .35424806-.053949994 .3564453-.043304445 .3564453-.032165529Z"/>
</defs>
<use data-text=" " xlink:href="#font_0_1" transform="matrix(11.04,0,0,-11.04,71.38385,81.25418)"/>
<g clip-path="url(#clip_1)">
<path transform="matrix(.00007874016,0,0,.00007874016,72.60404,79.714359)" stroke-width="12700" stroke-linecap="butt" stroke-miterlimit="8" stroke-linejoin="miter" fill="none" stroke="#ed7d31" d="M0 0H957580V4865370H0Z"/>
</g>
<g clip-path="url(#clip_2)">
<use data-text="4" xlink:href="#font_3_5" transform="matrix(48,0,0,-48,97.139949,141.01418)" fill="#ed7d31"/>
<use data-text=" " xlink:href="#font_3_1" transform="matrix(48,0,0,-48,121.46808,141.01418)" fill="#ed7d31"/>
<use data-text="6" xlink:href="#font_3_6" transform="matrix(48,0,0,-48,97.139949,199.57418)" fill="#ed7d31"/>
<use data-text=" " xlink:href="#font_3_1" transform="matrix(48,0,0,-48,121.46808,199.57418)" fill="#ed7d31"/>
<use data-text="9" xlink:href="#font_3_7" transform="matrix(48,0,0,-48,97.139949,258.1342)" fill="#ed7d31"/>
<use data-text=" " xlink:href="#font_3_1" transform="matrix(48,0,0,-48,121.46808,258.1342)" fill="#ed7d31"/>
<use data-text="1" xlink:href="#font_3_3" transform="matrix(48,0,0,-48,97.139949,316.69416)" fill="#ed7d31"/>
<use data-text=" " xlink:href="#font_3_1" transform="matrix(48,0,0,-48,121.46808,316.69416)" fill="#ed7d31"/>
<use data-text="3" xlink:href="#font_3_4" transform="matrix(48,0,0,-48,97.139949,375.25419)" fill="#ed7d31"/>
<use data-text=" " xlink:href="#font_3_1" transform="matrix(48,0,0,-48,121.46808,375.25419)" fill="#ed7d31"/>
<use data-text="1" xlink:href="#font_3_3" transform="matrix(48,0,0,-48,97.139949,433.81419)" fill="#ed7d31"/>
</g>
<g clip-path="url(#clip_4)">
<use data-text=" " xlink:href="#font_3_1" transform="matrix(48,0,0,-48,121.46808,433.81419)" fill="#ed7d31"/>
</g>
<g clip-path="url(#clip_5)">
<path transform="matrix(.00007874016,0,0,.00007874016,72.60404,215.11429)" stroke-width="6350" stroke-linecap="butt" stroke-miterlimit="8" stroke-linejoin="miter" fill="none" stroke="#4472c4" d="M0 0 957580 1"/>
</g>
<g clip-path="url(#clip_6)">
<path transform="matrix(.00007874016,0,0,.00007874016,72.60404,331.7144)" stroke-width="6350" stroke-linecap="butt" stroke-miterlimit="8" stroke-linejoin="miter" fill="none" stroke="#4472c4" d="M0 0 957580 1"/>
</g>
<g clip-path="url(#clip_7)">
<path transform="matrix(1,0,0,-1,0,595.2756)" d="M267.2041 371.5612H373.4541V274.7112H267.2041Z" fill="#ed7d31"/>
<path transform="matrix(.00007874016,0,0,.00007874016,267.2041,223.71439)" stroke-width="12700" stroke-linecap="butt" stroke-miterlimit="8" stroke-linejoin="miter" fill="none" stroke="#ed7d31" d="M0 0H1349375V1229995H0Z"/>
</g>
<g clip-path="url(#clip_8)">
<use data-text="R" xlink:href="#font_9_4" transform="matrix(36,0,0,-36,283.79093,284.2942)" fill="#ffffff"/>
<use data-text="A" xlink:href="#font_9_2" transform="matrix(36,0,0,-36,303.33894,284.2942)" fill="#ffffff"/>
<use data-text="M" xlink:href="#font_9_3" transform="matrix(36,0,0,-36,324.1685,284.2942)" fill="#ffffff"/>
</g>
<g clip-path="url(#clip_10)">
<use data-text=" " xlink:href="#font_9_1" transform="matrix(36,0,0,-36,354.94706,284.2942)" fill="#ffffff"/>
</g>
<g clip-path="url(#clip_11)">
<use data-text="S" xlink:href="#font_12_7" transform="matrix(24,0,0,-24,282.91615,358.21418)" fill="#ed7d31"/>
<use data-text="i" xlink:href="#font_12_11" transform="matrix(24,0,0,-24,293.94416,358.21418)" fill="#ed7d31"/>
<use data-text="z" xlink:href="#font_12_19" transform="matrix(24,0,0,-24,299.45219,358.21418)" fill="#ed7d31"/>
<use data-text="e" xlink:href="#font_12_9" transform="matrix(24,0,0,-24,308.93217,358.21418)" fill="#ed7d31"/>
<use data-text=" " xlink:href="#font_12_1" transform="matrix(24,0,0,-24,320.87458,358.21418)" fill="#ed7d31"/>
<use data-text="=" xlink:href="#font_12_21" transform="matrix(24,0,0,-24,326.30097,358.21418)" fill="#ed7d31"/>
<use data-text=" " xlink:href="#font_12_1" transform="matrix(24,0,0,-24,338.25297,358.21418)" fill="#ed7d31"/>
<use data-text="2" xlink:href="#font_12_20" transform="matrix(24,0,0,-24,343.67939,358.21418)" fill="#ed7d31"/>
<use data-text=" " xlink:href="#font_12_1" transform="matrix(24,0,0,-24,355.8418,358.21418)" fill="#ed7d31"/>
</g>
<g clip-path="url(#clip_13)">
<path transform="matrix(.00007874016,0,0,.00007874016,440.354,55.81427)" stroke-width="12700" stroke-linecap="butt" stroke-miterlimit="8" stroke-linejoin="miter" fill="none" stroke="#ed7d31" d="M0 0H1143000V1621790H0Z"/>
</g>
<g clip-path="url(#clip_14)">
<use data-text="4" xlink:href="#font_3_5" transform="matrix(48,0,0,-48,472.3599,106.45418)" fill="#ed7d31"/>
<use data-text=" " xlink:href="#font_3_1" transform="matrix(48,0,0,-48,496.68797,106.45418)" fill="#ed7d31"/>
<use data-text="6" xlink:href="#font_3_6" transform="matrix(48,0,0,-48,472.3599,165.25418)" fill="#ed7d31"/>
<use data-text=" " xlink:href="#font_3_1" transform="matrix(48,0,0,-48,496.68797,165.25418)" fill="#ed7d31"/>
</g>
<g clip-path="url(#clip_15)">
<path transform="matrix(.00007874016,0,0,.00007874016,440.354,215.11429)" stroke-width="12700" stroke-linecap="butt" stroke-miterlimit="8" stroke-linejoin="miter" fill="none" stroke="#ed7d31" d="M0 0H1143000V1621790H0Z"/>
</g>
<g clip-path="url(#clip_16)">
<use data-text="1" xlink:href="#font_3_3" transform="matrix(48,0,0,-48,472.3599,265.81419)" fill="#ed7d31"/>
<use data-text=" " xlink:href="#font_3_1" transform="matrix(48,0,0,-48,496.68797,265.81419)" fill="#ed7d31"/>
<use data-text="9" xlink:href="#font_3_7" transform="matrix(48,0,0,-48,472.3599,324.37419)" fill="#ed7d31"/>
<use data-text=" " xlink:href="#font_3_1" transform="matrix(48,0,0,-48,496.68797,324.37419)" fill="#ed7d31"/>
</g>
<g clip-path="url(#clip_17)">
<path transform="matrix(.00007874016,0,0,.00007874016,440.354,367.71437)" stroke-width="12700" stroke-linecap="butt" stroke-miterlimit="8" stroke-linejoin="miter" fill="none" stroke="#ed7d31" d="M0 0H1143000V1621790H0Z"/>
</g>
<g clip-path="url(#clip_18)">
<use data-text="1" xlink:href="#font_3_3" transform="matrix(48,0,0,-48,472.3599,418.45417)" fill="#ed7d31"/>
<use data-text=" " xlink:href="#font_3_1" transform="matrix(48,0,0,-48,496.68797,418.45417)" fill="#ed7d31"/>
<use data-text="3" xlink:href="#font_3_4" transform="matrix(48,0,0,-48,472.3599,477.01417)" fill="#ed7d31"/>
<use data-text=" " xlink:href="#font_3_1" transform="matrix(48,0,0,-48,496.68797,477.01417)" fill="#ed7d31"/>
</g>
<g clip-path="url(#clip_19)">
<use data-text="I" xlink:href="#font_12_2" transform="matrix(24,0,0,-24,82.70196,533.1742)" fill="#ed7d31"/>
<use data-text="n" xlink:href="#font_12_12" transform="matrix(24,0,0,-24,88.74996,533.1742)" fill="#ed7d31"/>
<use data-text="p" xlink:href="#font_12_14" transform="matrix(24,0,0,-24,101.35956,533.1742)" fill="#ed7d31"/>
<use data-text="u" xlink:href="#font_12_18" transform="matrix(24,0,0,-24,113.96916,533.1742)" fill="#ed7d31"/>
<use data-text="t" xlink:href="#font_12_17" transform="matrix(24,0,0,-24,126.578769,533.1742)" fill="#ed7d31"/>
<use data-text=" " xlink:href="#font_12_1" transform="matrix(24,0,0,-24,134.61603,533.1742)" fill="#ed7d31"/>
</g>
<g clip-path="url(#clip_20)">
<use data-text="K" xlink:href="#font_12_3" transform="matrix(24,0,0,-24,444.43156,533.1742)" fill="#ed7d31"/>
<use data-text=" " xlink:href="#font_12_1" transform="matrix(24,0,0,-24,456.89955,533.1742)" fill="#ed7d31"/>
<use data-text="S" xlink:href="#font_12_7" transform="matrix(24,0,0,-24,462.32597,533.1742)" fill="#ed7d31"/>
<use data-text="o" xlink:href="#font_12_13" transform="matrix(24,0,0,-24,473.35398,533.1742)" fill="#ed7d31"/>
<use data-text="r" xlink:href="#font_12_15" transform="matrix(24,0,0,-24,486.0092,533.1742)" fill="#ed7d31"/>
<use data-text="t" xlink:href="#font_12_17" transform="matrix(24,0,0,-24,494.37559,533.1742)" fill="#ed7d31"/>
<use data-text="e" xlink:href="#font_12_9" transform="matrix(24,0,0,-24,502.4156,533.1742)" fill="#ed7d31"/>
<use data-text="d" xlink:href="#font_12_8" transform="matrix(24,0,0,-24,514.358,533.1742)" fill="#ed7d31"/>
<use data-text=" " xlink:href="#font_12_1" transform="matrix(24,0,0,-24,526.9676,533.1742)" fill="#ed7d31"/>
<use data-text="L" xlink:href="#font_12_4" transform="matrix(24,0,0,-24,464.49388,562.45419)" fill="#ed7d31"/>
<use data-text="i" xlink:href="#font_12_11" transform="matrix(24,0,0,-24,474.5835,562.45419)" fill="#ed7d31"/>
<use data-text="s" xlink:href="#font_12_16" transform="matrix(24,0,0,-24,480.0915,562.45419)" fill="#ed7d31"/>
<use data-text="t" xlink:href="#font_12_17" transform="matrix(24,0,0,-24,489.4779,562.45419)" fill="#ed7d31"/>
<use data-text="s" xlink:href="#font_12_16" transform="matrix(24,0,0,-24,497.5179,562.45419)" fill="#ed7d31"/>
<use data-text=" " xlink:href="#font_12_1" transform="matrix(24,0,0,-24,506.90403,562.45419)" fill="#ed7d31"/>
</g>
<g clip-path="url(#clip_21)">
<path transform="matrix(.00007874016,0,0,.00007874016,660.354,79.41437)" stroke-width="12700" stroke-linecap="butt" stroke-miterlimit="8" stroke-linejoin="miter" fill="none" stroke="#ed7d31" d="M0 0H957580V4865370H0Z"/>
</g>
<g clip-path="url(#clip_22)">
<use data-text="1" xlink:href="#font_3_3" transform="matrix(48,0,0,-48,684.9,140.77419)" fill="#ed7d31"/>
<use data-text=" " xlink:href="#font_3_1" transform="matrix(48,0,0,-48,709.22817,140.77419)" fill="#ed7d31"/>
<use data-text="1" xlink:href="#font_3_3" transform="matrix(48,0,0,-48,684.9,199.33419)" fill="#ed7d31"/>
<use data-text=" " xlink:href="#font_3_1" transform="matrix(48,0,0,-48,709.22817,199.33419)" fill="#ed7d31"/>
<use data-text="3" xlink:href="#font_3_4" transform="matrix(48,0,0,-48,684.9,257.89418)" fill="#ed7d31"/>
<use data-text=" " xlink:href="#font_3_1" transform="matrix(48,0,0,-48,709.22817,257.89418)" fill="#ed7d31"/>
<use data-text="4" xlink:href="#font_3_5" transform="matrix(48,0,0,-48,684.9,316.45417)" fill="#ed7d31"/>
<use data-text=" " xlink:href="#font_3_1" transform="matrix(48,0,0,-48,709.22817,316.45417)" fill="#ed7d31"/>
<use data-text="6" xlink:href="#font_3_6" transform="matrix(48,0,0,-48,684.9,375.01417)" fill="#ed7d31"/>
<use data-text=" " xlink:href="#font_3_1" transform="matrix(48,0,0,-48,709.22817,375.01417)" fill="#ed7d31"/>
<use data-text="9" xlink:href="#font_3_7" transform="matrix(48,0,0,-48,684.9,433.57417)" fill="#ed7d31"/>
</g>
<g clip-path="url(#clip_23)">
<use data-text=" " xlink:href="#font_3_1" transform="matrix(48,0,0,-48,709.22817,433.57417)" fill="#ed7d31"/>
</g>
<g clip-path="url(#clip_24)">
<use data-text="O" xlink:href="#font_12_6" transform="matrix(24,0,0,-24,660.56069,531.01419)" fill="#ed7d31"/>
<use data-text="u" xlink:href="#font_12_18" transform="matrix(24,0,0,-24,676.4511,531.01419)" fill="#ed7d31"/>
<use data-text="t" xlink:href="#font_12_17" transform="matrix(24,0,0,-24,689.06069,531.01419)" fill="#ed7d31"/>
<use data-text="p" xlink:href="#font_12_14" transform="matrix(24,0,0,-24,697.1007,531.01419)" fill="#ed7d31"/>
<use data-text="u" xlink:href="#font_12_18" transform="matrix(24,0,0,-24,709.7103,531.01419)" fill="#ed7d31"/>
<use data-text="t" xlink:href="#font_12_17" transform="matrix(24,0,0,-24,722.3199,531.01419)" fill="#ed7d31"/>
<use data-text=" " xlink:href="#font_12_1" transform="matrix(24,0,0,-24,730.3574,531.01419)" fill="#ed7d31"/>
</g>
<g clip-path="url(#clip_25)">
<path transform="matrix(1,0,0,-1,0,595.2756)" d="M164.1597 431.4283 241.0741 379.7062 238.563 375.972 161.6486 427.6941ZM241.7182 384.6959 249.1541 371.5612 234.1848 373.4933Z" fill="#ed7d31"/>
</g>
<g clip-path="url(#clip_26)">
<path transform="matrix(1,0,0,-1,0,595.2756)" d="M157.504 324.5612 243.754 324.5613V329.0613L157.504 329.0612ZM241.504 320.0613 255.004 326.8113 241.504 333.5613Z" fill="#ed7d31"/>
</g>
<g clip-path="url(#clip_27)">
<path transform="matrix(1,0,0,-1,0,595.2756)" d="M164.271 225.7741 241.4349 284.7897 238.7011 288.3641 161.5372 229.3485ZM242.3815 279.8484 249.0041 293.4113 234.1802 290.5717Z" fill="#ed7d31"/>
</g>
<g clip-path="url(#clip_28)">
<path transform="matrix(1,0,0,-1,0,595.2756)" d="M388.5543 358.3348 430.9213 452.0831 426.8206 453.9363 384.4536 360.188ZM434.0954 448.1795 433.504 463.2614 421.7933 453.7391Z" fill="#ed7d31"/>
</g>
<g clip-path="url(#clip_29)">
<path transform="matrix(1,0,0,-1,0,595.2756)" d="M386.504 328.8112H417.254V324.3112H386.504ZM415.004 333.3112 428.504 326.5612 415.0039 319.8112Z" fill="#ed7d31"/>
</g>
<g clip-path="url(#clip_30)">
<path transform="matrix(1,0,0,-1,0,595.2756)" d="M388.58 298.6289 426.0924 208.8591 421.9403 207.1241 384.4279 296.8939ZM429.3769 212.6701 428.354 197.6114 416.9207 207.465Z" fill="#ed7d31"/>
</g>
<g clip-path="url(#clip_31)">
<path transform="matrix(1,0,0,-1,0,595.2756)" d="M560.354 330.5612H624.504V326.0612H560.354ZM622.254 335.0612 635.754 328.3112 622.254 321.5612Z" fill="#ed7d31"/>
</g>
<g clip-path="url(#clip_32)">
<use data-text="M" xlink:href="#font_12_5" transform="matrix(24,0,0,-24,560.4658,237.97418)" fill="#ed7d31"/>
<use data-text="e" xlink:href="#font_12_9" transform="matrix(24,0,0,-24,580.98587,237.97418)" fill="#ed7d31"/>
<use data-text="r" xlink:href="#font_12_15" transform="matrix(24,0,0,-24,592.9282,237.97418)" fill="#ed7d31"/>
<use data-text="g" xlink:href="#font_12_10" transform="matrix(24,0,0,-24,601.29458,237.97418)" fill="#ed7d31"/>
<use data-text="e" xlink:href="#font_12_9" transform="matrix(24,0,0,-24,612.5914,237.97418)" fill="#ed7d31"/>
<use data-text=" " xlink:href="#font_12_1" transform="matrix(24,0,0,-24,624.53237,237.97418)" fill="#ed7d31"/>
</g>
</svg>
