<svg xmlns="http://www.w3.org/2000/svg" version="1.1" xmlns:xlink="http://www.w3.org/1999/xlink" xmlns:svgjs="http://svgjs.dev/svgjs" width="1000" height="247" viewBox="0 0 1000 247"><g transform="matrix(1,0,0,1,-0.6060606060606233,-0.4375726981040202)"><svg viewBox="0 0 396 98" data-background-color="#ffffff" preserveAspectRatio="xMidYMid meet" height="247" width="1000" xmlns="http://www.w3.org/2000/svg" xmlns:xlink="http://www.w3.org/1999/xlink"><g id="tight-bounds" transform="matrix(1,0,0,1,0.2400000000000091,0.17361183973358152)"><svg viewBox="0 0 395.52 97.65277542648555" height="97.65277542648555" width="395.52"><g><svg viewBox="0 0 397.4975999999999 98.14103930361796" height="97.65277542648555" width="395.52"><g><rect width="397.4975999999999" height="2.8073954137091226" x="0" y="50.37178041423171" fill="#f1802d" opacity="1" stroke-width="0" stroke="transparent" fill-opacity="1" class="rect-o-0" data-fill-palette-color="primary" rx="1%" id="o-0" data-palette-color="#f1802d"></rect></g><g><rect width="397.4975999999999" height="2.8073954137091226" x="0" y="56.85377715478523" fill="#f1802d" opacity="1" stroke-width="0" stroke="transparent" fill-opacity="1" class="rect-o-1" data-fill-palette-color="primary" rx="1%" id="o-1" data-palette-color="#f1802d"></rect></g><g transform="matrix(1,0,0,1,0.9887999999999693,67.01037522218316)"><svg viewBox="0 0 395.52 31.1306640814348" height="31.1306640814348" width="395.52"><g><svg viewBox="0 0 395.52 31.1306640814348" height="31.1306640814348" width="395.52"><g><svg viewBox="0 0 395.52 31.1306640814348" height="31.1306640814348" width="395.52"><g transform="matrix(1,0,0,1,0,0)"><svg width="395.52" viewBox="0.8300000429153442 -31.010000228881836 402.9000244140625 31.719999313354492" height="31.1306640814348" data-palette-color="#f1802d"><path d="M0.83-26.86L5.47-25.15 5.47-5.3 1.46-3.86 1.22 0 30.3 0 31.03-10.03 27-10.45 23.44-4.39 14.58-4.88 14.58-13.18 17.33-12.7 24-11.47 24.8-18.21 18.6-17.7 17.82-17.65 14.58-17.38 14.58-26.17 23-26.17 25.02-20.8 29.2-20.17 29.93-30.37 1.29-30.37 0.83-26.86ZM32.71 0L46.38 0 47.14-4.08 43.65-5.66 47.82-10.64 52.07-5.64 49.88-4.05 49.17 0 64.89 0 65.52-4.37 63.01-5.49 53.93-15.75 60.89-24.78 64.06-26.54 64.65-30.37 52.24-30.37 51.58-26.46 54.37-24.76 50.97-19.29 46.58-24.66 48.8-26.27 49.46-30.37 33.71-30.37 33.03-26.03 36.11-24.71 44.43-14.43 36.47-5.69 33.32-3.83 32.71 0ZM67.28-30.37L67.35-19.58 71.5-18.95 73.63-26.17 77.53-26.17 77.53-5.1 72.97-3.42 72.65 0 91.13 0 91.52-3.74 86.35-5.08 86.35-26.17 90.35-26.17 91.91-19.95 96.38-19.19 97.16-30.37 67.28-30.37ZM98.87-26.86L103.51-25.15 103.51-5.3 99.5-3.86 99.26 0 128.34 0 129.07-10.03 125.04-10.45 121.48-4.39 112.61-4.88 112.61-13.18 115.37-12.7 122.04-11.47 122.84-18.21 116.64-17.7 115.86-17.65 112.61-17.38 112.61-26.17 121.04-26.17 123.06-20.8 127.24-20.17 127.97-30.37 99.33-30.37 98.87-26.86ZM148.33 0L148.62-3.78 144.89-5.1 144.89-11.45 148.65-11.45 149.21-9.47Q150.21-5.96 151.67-3.75 153.14-1.54 155.3-0.45 157.46 0.63 160.54 0.63L160.54 0.63Q161.73 0.63 162.83 0.45 163.93 0.27 164.57-0.05L164.57-0.05 165.32-3.25 164.37-3.88Q162.42-5.18 160.77-6.65 159.12-8.13 157.63-10.25L157.63-10.25 155.12-13.94 155.12-13.96Q157.63-14.99 159.23-17.05 160.83-19.12 160.83-22.17L160.83-22.17Q160.83-25.27 159.19-27.14 157.56-29 154.37-29.82 151.19-30.64 146.28-30.64L146.28-30.64Q137.69-30.64 131.46-29.37L131.46-29.37 131.17-25.46 135.85-24.32 135.85-5.3 131.22-3.37 130.75 0 148.33 0ZM144.89-26.22Q145.16-26.25 145.69-26.25L145.69-26.25Q147.43-26.25 148.76-25.52 150.09-24.8 150.81-23.6 151.53-22.39 151.53-21L151.53-21Q151.53-19.14 151.11-17.92 150.7-16.7 149.84-15.82L149.84-15.82 144.89-15.82 144.89-26.22ZM167.1-26.54L171.42-24.49 171.42-5.3 167.25-3.37 167 0 181.19 0 181.51-3.61 177.11-5.15 177.11-15.11 189.39 0.71 196.55-0.37 196.55-25.07 199.91-26.71 200.52-30.37 187.17-30.37 186.58-26.71 191.17-24.9 191.17-12.52 177.45-30.37 167.44-30.37 167.1-26.54ZM202.21 0L216.73 0 217.1-3.61 212.49-5.86 213.39-8.59 222.96-8.59 223.89-5.86 219.83-3.32 219.44 0.05 236.9 0.05 237.19-3.54 233.82-5.81 224.3-31.01 215.83-29.42 206.36-5.88 202.67-3.37 202.21 0ZM215.1-13.7L218.12-22.78 221.23-13.7 215.1-13.7ZM238.87 0L266.02 0 267.17-10.5 263.12-11.06 258.87-4.35 252.28-4.88 252.28-24.41 257.06-26.81 257.58-30.4 239.44-30.4 238.97-26.81 243.17-24.37 243.17-5.3 239.26-3.37 238.87 0ZM290.38 0.56Q292.9 0.56 295.77-0.42 298.63-1.39 300.7-3.66 302.76-5.93 302.76-9.55L302.76-9.55Q302.76-12.13 301.28-14.03 299.81-15.92 297.78-17.13 295.75-18.33 292.6-19.8L292.6-19.8Q290.58-20.75 289.48-21.34 288.38-21.92 287.66-22.64 286.94-23.36 286.94-24.17L286.94-24.17Q286.94-25.49 287.79-26.25 288.65-27 290.24-27L290.24-27Q291.6-27 293-26.4 294.39-25.81 295.02-24.83L295.02-24.83 295.97-20.85 300.2-20.12Q300.29-21.41 300.59-25 300.88-28.59 300.88-28.96L300.88-28.96Q300.27-29.47 298.68-29.92 297.1-30.37 295.23-30.64 293.36-30.91 291.99-30.91L291.99-30.91Q288.65-30.91 285.94-29.68 283.23-28.44 281.67-26.17 280.1-23.9 280.1-20.92L280.1-20.92Q280.1-18.26 281.5-16.39 282.89-14.53 284.79-13.39 286.7-12.26 289.67-10.94L289.67-10.94Q291.6-10.08 292.67-9.51 293.73-8.94 294.44-8.22 295.14-7.5 295.14-6.62L295.14-6.62Q295.14-5.91 294.59-5.26 294.04-4.61 293.13-4.21 292.21-3.81 291.16-3.81L291.16-3.81Q289.6-3.81 288.15-4.24 286.7-4.66 286.01-5.42L286.01-5.42 284.99-9.99 280.67-10.69 279.84-1.61Q280.81-0.66 283.64-0.05 286.48 0.56 290.38 0.56L290.38 0.56ZM319.7 0.66Q324.27 0.66 327.92-1.16 331.57-2.98 333.68-6.51 335.79-10.03 335.79-14.97L335.79-14.97Q335.79-23.32 331.76-27.15 327.73-30.98 320.68-30.98L320.68-30.98Q315.7-30.98 312.05-28.99 308.4-27 306.44-23.4 304.49-19.8 304.49-15.11L304.49-15.11Q304.49-10.38 306.14-6.84 307.79-3.3 311.19-1.32 314.6 0.66 319.7 0.66L319.7 0.66ZM319.56-26.71Q321.97-26.71 323.34-24.48 324.71-22.24 325.19-19.35 325.68-16.46 325.68-13.99L325.68-13.99Q325.68-8.84 324.5-6.41 323.31-3.98 321-3.98L321-3.98Q318.51-3.98 317.04-6.15 315.58-8.33 315.01-11.18 314.45-14.04 314.45-16.38L314.45-16.38Q314.45-21.41 315.66-24.06 316.87-26.71 319.56-26.71L319.56-26.71ZM355.1 0L355.39-3.78 351.66-5.1 351.66-11.45 355.42-11.45 355.98-9.47Q356.98-5.96 358.44-3.75 359.91-1.54 362.07-0.45 364.23 0.63 367.31 0.63L367.31 0.63Q368.5 0.63 369.6 0.45 370.7 0.27 371.33-0.05L371.33-0.05 372.09-3.25 371.14-3.88Q369.19-5.18 367.54-6.65 365.89-8.13 364.4-10.25L364.4-10.25 361.89-13.94 361.89-13.96Q364.4-14.99 366-17.05 367.6-19.12 367.6-22.17L367.6-22.17Q367.6-25.27 365.96-27.14 364.33-29 361.14-29.82 357.96-30.64 353.05-30.64L353.05-30.64Q344.45-30.64 338.23-29.37L338.23-29.37 337.94-25.46 342.62-24.32 342.62-5.3 337.99-3.37 337.52 0 355.1 0ZM351.66-26.22Q351.93-26.25 352.46-26.25L352.46-26.25Q354.2-26.25 355.53-25.52 356.86-24.8 357.58-23.6 358.3-22.39 358.3-21L358.3-21Q358.3-19.14 357.88-17.92 357.47-16.7 356.61-15.82L356.61-15.82 351.66-15.82 351.66-26.22ZM373.85-30.37L373.92-19.58 378.07-18.95 380.19-26.17 384.1-26.17 384.1-5.1 379.54-3.42 379.22 0 397.7 0 398.09-3.74 392.91-5.08 392.91-26.17 396.92-26.17 398.48-19.95 402.95-19.19 403.73-30.37 373.85-30.37Z" opacity="1" transform="matrix(1,0,0,1,0,0)" fill="#f1802d" class="undefined-text-0" data-fill-palette-color="primary" id="text-0"></path></svg></g></svg></g></svg></g></svg></g><g transform="matrix(1,0,0,1,170.31765582364915,0)"><svg viewBox="0 0 56.86228835270164 43.0225777605429" height="43.0225777605429" width="56.86228835270164"><g><svg xmlns="http://www.w3.org/2000/svg" xmlns:xlink="http://www.w3.org/1999/xlink" version="1.1" x="0" y="0" viewBox="0 13 100 75.66100311279297" enable-background="new 0 0 100 100" xml:space="preserve" height="43.0225777605429" width="56.86228835270164" class="icon-icon-0" data-fill-palette-color="accent" id="icon-0"><g fill="#549aab" data-fill-palette-color="accent"><path d="M92.036 13.167H41.764c-4.378 0-7.964 3.586-7.964 7.964v0.498c0 4.379 3.586 7.964 7.964 7.964h50.272c4.379 0 7.964-3.585 7.964-7.964v-0.498C100 16.753 96.415 13.167 92.036 13.167z" fill="#549aab" data-fill-palette-color="accent"></path><path d="M92.036 42.701H41.764c-4.378 0-7.964 3.586-7.964 7.964v0.498c0 4.379 3.586 7.964 7.964 7.964h50.272c4.379 0 7.964-3.585 7.964-7.964v-0.498C100 46.287 96.415 42.701 92.036 42.701z" fill="#549aab" data-fill-palette-color="accent"></path><path d="M92.036 72.235H41.764c-4.378 0-7.964 3.586-7.964 7.964v0.498c0 4.379 3.586 7.964 7.964 7.964h50.272c4.379 0 7.964-3.585 7.964-7.964v-0.498C100 75.821 96.415 72.235 92.036 72.235z" fill="#549aab" data-fill-palette-color="accent"></path><polygon points="22.554,13 10.639,13.031 10.639,72.068 0,72.068 22.554,88.661  " fill="#549aab" data-fill-palette-color="accent"></polygon></g></svg></g></svg></g><g></g></svg></g><defs></defs></svg><rect width="395.52" height="97.65277542648555" fill="none" stroke="none" visibility="hidden"></rect></g></svg></g></svg>